<svg width="252" height="331" viewBox="0 0 252 331" fill="none" xmlns="http://www.w3.org/2000/svg">
<path d="M206.696 287.826H243V229.985H200.45V253.825H8V315.574V323H206.696V287.826Z" fill="#002711"/>
<path d="M8 8V15.4256V253.825H200.45V229.985H243V38.8747H206.696V8H8Z" fill="#61EAD9"/>
<path fill-rule="evenodd" clip-rule="evenodd" d="M0 0H215.721V30.7635H252V295.953H215.721V331H0V0ZM17.1641 17.1341V244.94H192.316V221.186H234.836V47.8976H198.557V17.1341H17.1641ZM234.836 238.32H209.48V262.074H17.1641V313.866H198.557V278.819H234.836V238.32Z" fill="black"/>
<path d="M182 128H235V151H182V128Z" fill="#002711"/>
<path d="M96 178H149V201H96V178Z" fill="#002711"/>
<path d="M96 74H149V97H96V74Z" fill="#002711"/>
<path d="M122 94L122 125L96 125L96 94L122 94Z" fill="#002711"/>
</svg>
