<svg width="53" height="52" viewBox="0 0 53 52" fill="none" xmlns="http://www.w3.org/2000/svg">
<g opacity="0.9">
<path d="M0 15.7036H3.92593V35.3333H0V15.7036Z" fill="#59B0A0"/>
<path d="M39.2592 47.1112L39.2592 51.0371L17.6666 51.0371L17.6666 47.1112L39.2592 47.1112Z" fill="#59B0A0"/>
<path d="M3.92584 35.3334H7.85177V39.2593H3.92584V35.3334Z" fill="#59B0A0"/>
<path d="M7.85181 39.2592H11.7777V43.1852H7.85181V39.2592Z" fill="#59B0A0"/>
<path d="M9.81488 43.1854H15.7038V47.1113H9.81488V43.1854Z" fill="#59B0A0"/>
<path d="M52.9999 15.7036H49.074V35.3333H52.9999V15.7036Z" fill="#59B0A0"/>
<path d="M49.0741 35.3334H45.1482V39.2593H49.0741V35.3334Z" fill="#59B0A0"/>
<path d="M45.1481 39.2592H41.2222V43.1852H45.1481V39.2592Z" fill="#59B0A0"/>
<path d="M43.1851 43.1854H37.2962V47.1113H43.1851V43.1854Z" fill="#59B0A0"/>
<path d="M13.7407 47.1112H17.6666V51.0371H13.7407V47.1112Z" fill="#59B0A0"/>
<path d="M13.7407 3.92612L13.7407 0.000188589L33.3704 0.000191087L33.3704 3.92612L13.7407 3.92612Z" fill="#59B0A0"/>
<path d="M49.0741 15.7036L45.1482 15.7036L45.1482 9.81476L49.0741 9.81476L49.0741 15.7036Z" fill="#59B0A0"/>
<path d="M1.96307 15.7036L7.85196 15.7036L7.85196 9.81475L1.96307 9.81476L1.96307 15.7036Z" fill="#59B0A0"/>
<path d="M47.1112 9.81488L43.1853 9.81488L43.1853 5.88895L47.1112 5.88895L47.1112 9.81488Z" fill="#59B0A0"/>
<path d="M5.88892 9.81488L9.81484 9.81488L9.81484 5.88895L5.88892 5.88895L5.88892 9.81488Z" fill="#59B0A0"/>
<path d="M43.1851 5.88904L39.2591 5.88904L39.2591 1.96311L43.1851 1.96311L43.1851 5.88904Z" fill="#59B0A0"/>
<path d="M9.81488 5.88904L13.7408 5.88904L13.7408 1.96311L9.81488 1.96311L9.81488 5.88904Z" fill="#59B0A0"/>
<path d="M39.2592 3.92612L33.3703 3.92612L33.3703 0.000191427L39.2592 0.000191927L39.2592 3.92612Z" fill="#59B0A0"/>
<path d="M38.0205 47.1113H14.9794V43.6439H11.3986V39.2308H8.12929V34.8965H3.92584V14.88H6.96167V10.5457H10.1532V6.13266H13.7339V3.92612H38.9546V6.21146H42.5353V10.5457H45.7268V14.88H49.074V34.8965H44.8705V39.3096H41.6012V43.6439H38.0205V47.1113Z" fill="#6BFBE3"/>
<path fill-rule="evenodd" clip-rule="evenodd" d="M13.5802 3.92612H39.1131V6.17436H42.6377V10.4383H45.7792V14.7022H49.074V35.0949H44.9364V39.4363H41.7183V43.7002H38.1936V47.1113H14.8062V43.7002H11.2816V39.3588H8.06344V35.0949H3.92584V14.7022H6.91411V10.4383H10.0556V6.09683H13.5802V3.92612ZM14.2875 4.62734V6.79806H10.7629V11.1395H7.62139V15.4034H4.63312V34.3936H8.77072V38.6575H11.9889V42.999H15.5135V46.4101H37.4864V42.999H41.011V38.7351H44.2291V34.3936H48.3667V15.4034H45.0719V11.1395H41.9304V6.87558H38.4058V4.62734H14.2875Z" fill="#4B7F76"/>
<path d="M23.5555 15.7036L21.5926 15.7036L21.5926 11.7777L23.5555 11.7777L23.5555 15.7036Z" fill="white"/>
<path d="M21.5925 17.6668L17.6665 17.6668L17.6665 15.7038L21.5925 15.7038L21.5925 17.6668Z" fill="white"/>
<path d="M17.6666 17.6668L15.7037 17.6668L15.7037 15.7038L17.6666 15.7038L17.6666 17.6668Z" fill="white"/>
<path d="M15.7037 17.6668L11.7778 17.6668L11.7778 15.7038L15.7037 15.7038L15.7037 17.6668Z" fill="white"/>
<path d="M21.5925 15.7036L17.6665 15.7036L17.6665 11.7777L21.5925 11.7777L21.5925 15.7036Z" fill="white"/>
<path d="M17.6666 15.7036L15.7037 15.7036L15.7037 11.7777L17.6666 11.7777L17.6666 15.7036Z" fill="white"/>
<path d="M15.7037 21.5926L11.7778 21.5926L11.7778 17.6667L15.7037 17.6667L15.7037 21.5926Z" fill="white"/>
<path d="M17.6666 21.5926L15.7037 21.5926L15.7037 17.6667L17.6666 17.6667L17.6666 21.5926Z" fill="white"/>
<path d="M15.7037 23.5555L11.7778 23.5555L11.7778 21.5926L15.7037 21.5926L15.7037 23.5555Z" fill="white"/>
</g>
</svg>
