<svg width="170" height="132" viewBox="0 0 170 132" fill="none" xmlns="http://www.w3.org/2000/svg">
<path d="M62.1177 54.3529H84.5491V116.471H76.7844V132H69.0197V116.471H62.1177V132H46.5883V116.471H31.0589V132H4.57764e-05V123.373H6.902V100.078H15.5295V93.1765H6.902V85.4118H4.57764e-05V23.5884H6.902V16.4404H15.5295H46.5883V29.7834H21.5687H15.5295V37.9608H38.8236V40.0289H46.5883V35.2635H62.1177V44.7942H54.353V46.5882H46.5883V54.3529H31.0589V62.1176H23.2942V77.6471H38.8236V69.8823H46.5883V62.1176H62.1177V54.3529Z" fill="#B13B28"/>
<path d="M106.98 54.3529H84.5491V116.471H92.3138V132H100.078V116.471H106.98V132H122.51V116.471H138.039V132H169.098V123.373H162.196V100.078H153.569V93.1765H162.196V85.4118H169.098V15.5294H162.196V7.76471H153.569V0H122.51V15.5294H147.529V23.2941H153.569V37.9608H130.275V31.9216H122.51V23.2941H106.98V31.9216H114.745V46.5882H122.51V54.3529H138.039V62.1176H145.804V77.6471H130.275V69.8824H122.51V62.1176H106.98V54.3529Z" fill="#B13B28"/>
<rect width="15.5294" height="15.5294" transform="matrix(-1 0 0 1 108.707 75.9216)" fill="black"/>
<rect width="15.5294" height="15.5294" transform="matrix(-1 0 0 1 77.6472 75.9216)" fill="black"/>
</svg>
