<svg width="170" height="132" viewBox="0 0 170 132" fill="none" xmlns="http://www.w3.org/2000/svg">
<path d="M106.98 54.3529H84.549V116.471H92.3137V132H100.078V116.471H106.98V132H122.51V116.471H138.039V132H169.098V123.373H162.196V100.078H153.569V93.1765H162.196V85.4118H169.098V23.5884H162.196V16.4404H153.569H122.51V29.7834H147.529H153.569V37.9608H130.274V40.0289H122.51V35.2635H106.98V44.7942H114.745V46.5882H122.51V54.3529H138.039V62.1176H145.804V77.6471H130.274V69.8823H122.51V62.1176H106.98V54.3529Z" fill="#B13B28"/>
<path d="M62.1176 54.3529H84.549V116.471H76.7842V132H69.0195V116.471H62.1176V132H46.5882V116.471H31.0588V132H-7.62939e-05V123.373H6.90189V100.078H15.5293V93.1765H6.90189V85.4118H-7.62939e-05V15.5294H6.90189V7.76471H15.5293V0H46.5882V15.5294H21.5686V23.2941H15.5293V37.9608H38.8235V31.9216H46.5882V23.2941H62.1176V31.9216H54.3529V46.5882H46.5882V54.3529H31.0588V62.1176H23.294V77.6471H38.8235V69.8824H46.5882V62.1176H62.1176V54.3529Z" fill="#B13B28"/>
<rect x="60.3916" y="75.9216" width="15.5294" height="15.5294" fill="black"/>
<rect x="91.4508" y="75.9216" width="15.5294" height="15.5294" fill="black"/>
</svg>
