<svg width="130" height="150" viewBox="0 0 130 150" fill="none" xmlns="http://www.w3.org/2000/svg">
<path d="M98.7892 2.54236H34.8886H31.2109V18.8396H19.7179V31.2255H11.9028V41.6558H1.789V78.1617H11.9028V93.807H19.7179V105.541H22.4762H28.4526V118.579H38.1066V131.617H48.6801V146.61H83.1588V131.617H92.3531V118.579H101.088V105.541H109.363V93.807H118.097V78.1617H128.211V41.6558H120.396V31.2255H109.363V18.8396H98.7892V2.54236Z" fill="#93E1E7"/>
<path fill-rule="evenodd" clip-rule="evenodd" d="M29.193 0H100.807V16.2338H111.298V28.5714H122.246V38.961H130V81.8182H119.965V97.4026H111.298V109.091H103.088V122.078H94.4211V135.065H85.2982V150H46.5263V135.065H36.0351V122.078H26.4561V109.091H17.7895V97.4026H10.0351V81.8182H0V38.961H10.0351V28.5714H17.7895V16.2338H29.193V0ZM33.7544 6.49351V22.7273H22.3509V35.0649H14.5965V45.4545H4.5614V75.3247H14.5965V90.9091H22.3509V102.597H31.0175V115.584H40.5965V128.571H51.0877V143.506H80.7368V128.571H89.8596V115.584H98.5263V102.597H106.737V90.9091H115.404V75.3247H125.439V45.4545H117.684V35.0649H106.737V22.7273H96.2456V6.49351H33.7544Z" fill="#31256A"/>
<path d="M53.0734 97.5634V87.8026V83.8982H53.9934H85.2752V91.0562H75.1547V107.324H68.7143V120.339H53.9934V111.879H59.9738V97.5634H53.0734Z" fill="#39A3D2"/>
<path fill-rule="evenodd" clip-rule="evenodd" d="M51.2844 81.356H87.6606V94.8382H77.6571V110.889H71.2913V123.729H52.1938V108.963H58.105V101.258H51.2844V81.356ZM55.8314 87.7761V94.8382H62.652V115.383H56.7408V117.309H66.7443V104.468H73.1101V88.4181H83.1136V87.7761H55.8314Z" fill="#39A3D2"/>
<path fill-rule="evenodd" clip-rule="evenodd" d="M81.4082 20.0426H47.1101V13.5593H85.9813V27.1742H94.2128V38.8441H103.359V62.1839H121.651V68.6672H103.359V78.3922H94.2128V108.215H85.9813V119.237H77.7497V132.203H73.1767V112.754H81.4082V101.732H89.6398V78.3922H57.6282V71.9089H98.7859V45.3274H89.6398V33.6575H81.4082V20.0426Z" fill="#E9E6E6"/>
<path d="M44.9477 48.8266V36.4407H52.7052V38.3963V48.8266H44.9477Z" fill="#2550A5"/>
<path d="M26.2385 87.2881V74.2503V72.2946H34.4523V87.2881H26.2385Z" fill="#2550A5"/>
<path d="M70.5018 59.9087V48.8266H78.7156V50.1304V59.9087H70.5018Z" fill="#2550A5"/>
<path fill-rule="evenodd" clip-rule="evenodd" d="M42.6305 33.0508H54.996V52.0415H42.6305V33.0508ZM47.2103 39.5993V45.493H50.4161V39.5993H47.2103ZM68.2774 45.493H81.1009V63.174H68.2774V45.493ZM72.8572 52.0415V56.6255H76.5211V52.0415H72.8572ZM23.8532 69.0677H36.6767V90.6779H23.8532V69.0677ZM28.433 75.6163V84.1294H32.0969V75.6163H28.433Z" fill="#2550A5"/>
<path d="M18.4862 61.8645V46.1744V38.9832H33.3945V47.4819H25.2627V61.8645H18.4862Z" fill="#39A3D2"/>
<path fill-rule="evenodd" clip-rule="evenodd" d="M16.1009 36.4407H35.7798V51.1676H27.5421V65.2542H16.1009V36.4407ZM20.6774 42.8437V58.8512H22.9657V44.7646H31.2033V42.8437H20.6774Z" fill="#39A3D2"/>
</svg>
