<svg width="130" height="150" viewBox="0 0 130 150" fill="none" xmlns="http://www.w3.org/2000/svg">
<path d="M2.76596 84.0182V38.9268H13.5866V29.3449H26.4362V20.8903H33.8754H36.5805V14.1265H44.6961V2.29004H94.0653V11.3083H104.21V20.8903H116.383V29.3449H125.851V78.3818H116.383V96.982H104.21V112.2H94.0653V121.782H84.5973V130.237H75.1292V139.819H64.9848V147.71H26.4362V139.819H13.5866V87.4001H2.76596V84.0182Z" fill="#81F3FF"/>
<path fill-rule="evenodd" clip-rule="evenodd" d="M41.9792 0H98.1771V8.95522H108.333V18.4701H120.521V26.8657H130V81.1567H120.521V99.6269H108.333V114.739H98.1771V124.254H88.6979V132.649H79.2187V142.164H69.0625V150H23.6979V142.164H10.8333V90.1119H0V36.3806H10.8333V26.8657H23.6979V18.4701H33.8542V11.7537H41.9792V0ZM48.75 5.59702V17.3507H40.625V24.0672H30.4687V32.4627H17.6042V41.9776H6.77083V84.5149H17.6042V136.567H30.4687V144.403H62.2917V136.567H72.4479V127.052H81.9271V118.657H91.4062V109.142H101.562V94.0299H113.75V75.5597H123.229V32.4627H113.75V24.0672H101.562V14.5522H91.4062V5.59702H48.75Z" fill="#1D1B1C"/>
<path d="M48.4042 100.763H38.7234V141.985H48.4042V100.763Z" fill="#EEFEFB"/>
<path fill-rule="evenodd" clip-rule="evenodd" d="M35.9575 97.3282H52.5532V144.275H35.9575V97.3282ZM42.5958 102.984V138.619H45.9149V102.984H42.5958Z" fill="#EEFEFB"/>
<path d="M55.2364 36.1892V70.9924H79.6321V65.4681H101.317V58.8389H118.936V34.5319H109.449V26.2455H97.2511V16.8541H87.0863V8.01526H51.1702V36.1892H55.2364Z" fill="#EEFEFB"/>
<path fill-rule="evenodd" clip-rule="evenodd" d="M48.4043 4.5802H91.1761V13.5928H101.36V23.1686H113.58V31.6179H123.085V62.0353H105.433V68.7947H83.7081V74.4275H52.478V38.9406H48.4043V4.5802ZM55.1934 33.3077H59.2671V68.7947H76.9189V63.1618H98.6442V56.4024H116.296V37.2507H106.791V28.8015H94.5707V19.2256H84.387V10.213H55.1934V33.3077Z" fill="#EEFEFB"/>
<path d="M62.234 90.458V75.5725H80.2128V90.458H62.234Z" fill="#607BEE"/>
<path fill-rule="evenodd" clip-rule="evenodd" d="M58.0851 73.2825H82.9787V93.8932H58.0851V73.2825ZM64.8131 78.8529V88.3227H76.2507V78.8529H64.8131Z" fill="#607BEE"/>
<path d="M39.4149 50.8811H19.3617V62.2454H31.117V68.4957H39.4149V73.6097H51.1702V41.2214H39.4149V50.8811Z" fill="#54BCEA"/>
<path d="M51.1702 99.7475V116.794H60.8511V99.7475H51.1702Z" fill="#54BCEA"/>
<path fill-rule="evenodd" clip-rule="evenodd" d="M36.076 37.7863H54.2128V75.8768H36.076V70.7601H28.0152V64.5065H16.5957V47.451H36.076V37.7863ZM42.7933 70.1916H47.4954V43.4714H42.7933V53.1362H23.3131V58.8213H34.7325V65.075H42.7933V70.1916ZM47.4954 96.3433H63.617V119.084H47.4954V96.3433ZM54.2128 102.028V113.399H56.8997V102.028H54.2128Z" fill="#54BCEA"/>
</svg>
