<svg width="130" height="150" viewBox="0 0 130 150" fill="none" xmlns="http://www.w3.org/2000/svg">
<path d="M2.03125 103.284V64.4564H33.7362V34.5888V31.0046H42.0522V22.0443H49.8485V11.8893H58.6843V2.33167H87.2707V11.8893H92.4682H95.5867V22.0443H102.863V28.6152H111.179V90.1426H127.292V120.608V128.971H119.495V138.528H109.1V146.891H42.0522V138.528H27.4991V128.971H19.1831V118.816H8.26828V110.453H2.03125V103.284Z" fill="#F85F87"/>
<path fill-rule="evenodd" clip-rule="evenodd" d="M56.4542 0H90.1195V9.52381H98.4064V19.6429H105.657V26.1905H113.944V87.5H130V132.143H122.231V141.667H111.873V150H39.8805V141.667H25.3785V132.143H17.0916V122.024H6.21514V113.69H0V61.9048H31.5936V28.5714H39.8805V19.6429H47.6494V9.52381H56.4542V0ZM61.6335 5.95238V15.4762H52.8287V25.5952H45.0598V34.5238H36.7729V67.8571H5.17928V107.738H11.3944V116.071H22.2709V126.19H30.5578V135.714H45.0598V144.048H106.693V135.714H117.052V126.19H124.821V93.4524H108.765V32.1429H100.478V25.5952H93.2271V15.4762H84.9402V5.95238H61.6335Z" fill="#2B2823"/>
<path d="M7.44791 72.5142H28.1874V95.713V96.9027V98.6872V101.661H7.44791V72.5142Z" fill="#FFE1F9"/>
<path d="M108.553 98.6872V112.369H122.552V98.6872H108.553Z" fill="#FFE1F9"/>
<path d="M72.7773 12.4352H82.6286V18.9784H88.3319V30.8753H72.7773V12.4352Z" fill="#FFE1F9"/>
<path fill-rule="evenodd" clip-rule="evenodd" d="M70.1949 9.32642H85.26V15.8777H90.9743V33.7449H75.3897V63.5236H80.0651V56.3767H88.3769V45.6564H94.6107V39.7007H105.52V45.6564H99.8056V51.6121H93.5718V62.3324H85.26V69.4793H75.3897V101.64H70.1949V75.4351H63.4416V69.4793H70.1949V9.32642ZM75.3897 27.7892H85.7795V21.8335H80.0651V15.2821H75.3897V27.7892ZM4.73959 69.4793H30.7139V93.8978H42.6621V100.449H47.3375V104.023H52.0129V118.912H46.818V109.978H42.1426V106.405H37.4672V99.8536H30.7139V104.618H4.73959V69.4793ZM25.519 98.6624V75.4351H9.93446V98.6624H25.519ZM106.039 95.6846H125.26V115.338H106.039V95.6846ZM111.234 101.64V109.383H120.066V101.64H111.234Z" fill="#FFE1F9"/>
<path d="M37.7065 107.254H13.5417V113.218H24.5734V123.358H32.9786V132.902H36.1306V123.358H44.0104V115.604H37.7065V107.254Z" fill="#F13D63"/>
<path fill-rule="evenodd" clip-rule="evenodd" d="M10.8333 104.145H40.386V112.562H46.7188V126.391H38.8029V136.01H30.3592V126.391H21.9156V116.17H10.8333V104.145ZM35.1088 110.157H27.1929V120.378H41.4415V118.575H35.1088V110.157Z" fill="#F13D63"/>
<path fill-rule="evenodd" clip-rule="evenodd" d="M99.7355 25.6477V39.8951H93.4805V45.8315H86.7043V55.3298H76.8006V44.6442H81.4918V39.8951H88.268V33.9587H94.523V25.6477H99.7355ZM46.0471 79.0755V74.3263H40.8346V85.0119H48.6533V96.2911H55.9507V102.227H63.2482V111.726H71.0669V125.973H39.2708V135.471H44.4833V131.91H77.8431V143.782H83.0556V131.91H89.8318V122.411H97.1292V111.726H102.863V105.196H104.948V99.2593H97.6505V105.789H91.9168V116.475H84.6193V125.973H76.2794V105.789H68.4607V96.2911H61.1632V90.3547H53.8658V79.0755H46.0471Z" fill="#772443"/>
<path d="M47.1276 43.8572H39.2708V42.0619V37.2743H47.6513V28.2975H54.4605V18.1238H63.3648V8.54919H67.0313V68.3938H63.3648V60.0154H54.4605V53.4325H47.1276V43.8572Z" fill="#FC7BAE"/>
<path fill-rule="evenodd" clip-rule="evenodd" d="M60.2927 5.44043H69.0625V71.5026H60.2927V63.0946H51.5228V56.4883H44.3006V46.8792H36.5625V34.2672H44.8165V25.2586H51.5228V15.0489H60.2927V5.44043ZM63.9038 21.0547H56.6815V31.2644H49.9752V40.2729H41.7212V40.8735H49.4593V50.4826H56.6815V57.0889H63.9038V21.0547Z" fill="#FC7BAE"/>
</svg>
