<svg width="130" height="150" viewBox="0 0 130 150" fill="none" xmlns="http://www.w3.org/2000/svg">
<path d="M45.404 135.635V147.568H88.2889V137.908V135.635H98.4996V118.021H106.668V92.4516H118.24V66.3142H127.09V32.79V28.2444H113.475V20.2895H102.584V10.0618H96.4575H93.0539V3.24329H35.8741V10.0618H24.9827V20.2895H15.4527V28.2444H3.88058V66.3142H13.4106V92.4516H24.9827V118.021H35.8741V135.635H45.404Z" fill="#F2F77C"/>
<path fill-rule="evenodd" clip-rule="evenodd" d="M31.9895 0H95.9686V6.81818H105.497V17.0455H116.387V25H130V68.75H121.152V94.8864H109.581V120.455H101.414V138.068H91.2042V150H41.5183V138.068H31.9895V120.455H21.0995V94.8864H9.5288V68.75H0V25H11.5707V17.0455H21.0995V6.81818H31.9895V0ZM38.7958 5.68182V12.5H27.9058V22.7273H18.377V30.6818H6.80628V63.0682H16.3351V89.2045H27.9058V114.773H38.7958V132.386H48.3246V144.318H84.3979V132.386H94.6073V114.773H102.775V89.2045H114.346V63.0682H123.194V30.6818H109.581V22.7273H98.6911V12.5H89.1623V5.68182H38.7958Z" fill="#2B2823"/>
<path fill-rule="evenodd" clip-rule="evenodd" d="M41.7164 38.1082H48.5075V84.701H62.0896V110.27H55.2985V90.3831H41.7164V38.1082Z" fill="#F0FFE6"/>
<path fill-rule="evenodd" clip-rule="evenodd" d="M66.9403 8.91895V23.3158H59.0027V31.6216H52.3881V17.7785H60.3256V8.91895H66.9403Z" fill="#F0FFE6"/>
<path d="M67.9105 32.8212V24.3243H78.097V32.8212H90.3209V41.8845V52.0807H108.657V65.6757H78.097V55.4795H90.3209V52.0807V41.8845H78.097V32.8212H67.9105Z" fill="#F0FFE6"/>
<path fill-rule="evenodd" clip-rule="evenodd" d="M64.0298 21.0811H81.0075V29.5799H93.2313V48.844H111.567V68.1081H74.2164V52.2435H86.4403V44.3113H74.2164V35.2458H64.0298V21.0811ZM74.2164 29.5799V26.747H70.8209V29.5799H74.2164ZM81.0075 35.2458V38.6454H86.4403V35.2458H81.0075ZM93.2313 54.5099V57.9094H81.0075V62.4422H104.776V54.5099H93.2313Z" fill="#F0FFE6"/>
<path d="M18.4328 38.919V33.7838H21.8618V25.7958H31.4629V15.5256H40.3783V8.10815H58.209V15.5256H47.922V32.6427H38.3209V38.919H18.4328Z" fill="#318836"/>
<path fill-rule="evenodd" clip-rule="evenodd" d="M36.9798 4.86487H61.1194V17.9772H51.0612V35.0802H41.6736V41.3514H15.5224V30.5194H18.8751V22.538H28.2627V12.2762H36.9798V4.86487ZM25.5806 35.6503H34.9682V29.3792H44.3558V12.2762H54.414V10.5659H43.6853V17.9772H34.9682V28.239H25.5806V35.6503Z" fill="#318836"/>
<path d="M91.4455 82.5V73.7838H98.9552V74.946V82.5H91.4455V92.3784H81.2051V100.514H70.2819V91.2162H81.2051V83.6622V82.5H91.4455Z" fill="#318836"/>
<path d="M62.0895 108.649V100.514H69.5992V108.649H62.0895Z" fill="#318836"/>
<path fill-rule="evenodd" clip-rule="evenodd" d="M88.511 71.3513H102.836V85.5405H95.3323V95.1892H85.1003V103.135H73.504V111.081H59.1791V97.4594H67.3647V88.3783H78.2789V79.8648H88.511V71.3513ZM95.3323 79.8648H96.0145V77.027H95.3323V79.8648ZM88.511 85.5405H85.1003V89.5135H88.511V85.5405ZM78.2789 94.054H74.1861V97.4594H78.2789V94.054ZM66.6826 103.135H66.0005V105.405H66.6826V103.135Z" fill="#318836"/>
<path d="M59.1791 116.722V141.892H51.7683V129.879H42.3363V112.146H31.5569V86.4036H20.1037V60.0896H10.6716V48.6487H40.3151V92.6961H50.4208V116.722H59.1791Z" fill="#318836"/>
<path fill-rule="evenodd" clip-rule="evenodd" d="M6.79105 46.2162H43.8461V89.8828H54.1391V113.701H63.0597V144.324H48.6495V132.415H39.0426V114.835H28.0634V89.3157H16.398V63.2292H6.79105V46.2162ZM13.6531 51.8872V57.5582H23.26V83.6447H34.9254V109.164H45.9047V126.744H55.5115V138.653H56.1977V119.372H47.2771V95.5538H36.984V51.8872H13.6531Z" fill="#318836"/>
</svg>
