<svg width="228" height="325" viewBox="0 0 228 325" fill="none" xmlns="http://www.w3.org/2000/svg">
<path d="M8 317H220V253.289H8V317Z" fill="#002711"/>
<path d="M105.575 121.569H220V73.8832H105.575V121.569Z" fill="#002711"/>
<path d="M105.575 203.259H193.745V179.025H105.575V203.259Z" fill="#002711"/>
<path d="M220 203.259H193.745H105.575V179.025H193.745V121.569H220H105.575V73.8832H220V9H8V253.289H220V203.259Z" fill="#61EAD9"/>
<path fill-rule="evenodd" clip-rule="evenodd" d="M0 0H228V129.688H201.887V194.141H228V325H0V0ZM184.738 194.141V187.109H114.195V194.141H184.738ZM184.738 169.922V129.688H97.0462V64.8438H210.851V17.1875H17.1487V244.141H210.851V211.328H97.0462V169.922H184.738ZM210.851 261.328H17.1487V307.812H210.851V261.328ZM210.851 82.0312H114.195V112.5H210.851V82.0312Z" fill="black"/>
</svg>
