<svg width="526" height="225" viewBox="0 0 526 225" fill="none" xmlns="http://www.w3.org/2000/svg">
<path d="M7 106.5V56.75M7 2V56.75M7 56.75H35V2V106.5M54.5 71.5V101.5H78.5V67.5V56.75H62V43.5V33.5H54.5V7H78.5V30V33.5M126 101.5H98V56.75M98 56.75H120.5M98 56.75V7H126M147.5 106.5V79M178 106.5V79M178 79V7H147.5V79M178 79H151.5H147.5M198 106.5V56.75M220 56.75V7H198V56.75M220 56.75H198M220 56.75H233V106.5M255 106.5V13.5V7H233H273.5M299.5 106.5V79M324.5 106.5V79M324.5 79V7H299.5V79M324.5 79H299.5M206 222.5V134.5M206 118V134.5M206 134.5H216V154.5H222V174.5H233V222.5V118M78.5 217.5H54.5V167.75M54.5 167.75V118H78.5M54.5 167.75H75M98 181V217.5H120.5V167.75H107V153H98V124.5V118H120.5V138.5V143M140.5 118V217.5M187.5 143V118H164V217.5H178V204H187.5V162.5H178M268.5 182.5V217.5H292.5V178.5V167.75H276V154.5V144.5H268.5V118H292.5V141V144.5M340.5 148.5V118H315V217.5H340.5V178.5V172.5M361 118V162.5M361 222.5V162.5M361 162.5H386.5V118V222.5M504 118V217.5H525.5M346.5 106.5V18.5M346.5 2V18.5M346.5 18.5H356.5V38.5H362.5V58.5H373.5V106.5V2M392 101.5V7H404V13.5H415.5H421.5V97.5L415.5 101.5H392ZM7 217.5V118H19V124.5H30.5H36.5V208.5H30.5V217.5H7ZM408 118V217.5H436V118H408ZM456 118V217.5H484V118H456Z" stroke="white" stroke-width="14"/>
</svg>
