<svg width="100" height="186" viewBox="0 0 100 186" fill="none" xmlns="http://www.w3.org/2000/svg">
<path d="M53.9167 27.8056V3H70.8889V10.1806H79.375V19.9722H89.1667V36.9444H97V70.8889H89.1667V79.375H79.375V88.5139H70.8889V104.833H79.375V114.625H70.8889V122.458H79.375V174.681H70.8889V183.167H45.4306V174.681H27.8056V166.194H19.9722V156.403H27.8056V148.569H36.2917V166.194H53.9167V156.403H45.4306V139.431H36.2917V130.944H27.8056V122.458H19.9722V104.833H27.8056V97H36.2917V88.5139H45.4306V79.375H36.2917V70.8889H27.8056V62.4028H10.8333V70.8889H3V45.4306H10.8333V53.9167H27.8056V36.9444H45.4306V27.8056H53.9167Z" fill="#D1672D" stroke="#E0E000" stroke-width="5"/>
<rect width="7.83333" height="7.83333" transform="matrix(-1 0 0 1 53.9167 45.4307)" fill="black"/>
</svg>
