<svg width="100" height="186" viewBox="0 0 100 186" fill="none" xmlns="http://www.w3.org/2000/svg">
<path d="M46.0833 27.8056V3H29.1111V10.1806H20.625V19.9722H10.8333V36.9444H3V70.8889H10.8333V79.375H20.625V88.5139H29.1111V104.833H20.625V114.625H29.1111V122.458H20.625V174.681H29.1111V183.167H54.5694V174.681H72.1944V166.194H80.0278V156.403H72.1944V148.569H63.7083V166.194H46.0833V156.403H54.5694V139.431H63.7083V130.944H72.1944V122.458H80.0278V104.833H72.1944V97H63.7083V88.5139H54.5694V79.375H63.7083V70.8889H72.1944V62.4028H89.1667V70.8889H97V45.4306H89.1667V53.9167H72.1944V36.9444H54.5694V27.8056H46.0833Z" fill="#D1672D" stroke="#E0E000" stroke-width="5"/>
<rect x="46.0833" y="45.4307" width="7.83333" height="7.83333" fill="black"/>
</svg>
