<svg width="168" height="168" viewBox="0 0 168 168" fill="none" xmlns="http://www.w3.org/2000/svg">
<path d="M52.0274 96.7956L50.6283 116.712L39.8818 115.957L39.1284 126.681L26.8466 125.818L26.3085 133.478L15.5619 132.723L15.1314 138.851L14.2705 151.107L46.5102 153.372L47.1559 144.18L64.0434 145.366L64.9043 133.11L74.1157 133.757L83.327 134.404L94.0736 135.159L93.2126 147.415L116.241 149.033L115.488 159.757L118.558 159.973L143.122 161.698L144.521 141.782L133.774 141.027L134.312 133.367L122.03 132.505L122.784 121.781L112.037 121.026L113.436 101.11L122.648 101.757L122.971 97.1607L141.393 98.4548L142.039 89.2628L155.856 90.2335L156.609 79.5094L157.47 67.2534L112.949 64.1258L113.487 56.4657L105.811 55.9265L107.21 36.0104L101.069 35.579L102.361 17.195L88.5435 16.2243L76.2617 15.3615L74.6474 38.3416L65.4361 37.6945L63.8217 60.6746L17.765 57.4391L17.2269 65.0992L16.2583 78.8872L27.0049 79.6421L26.2515 90.3662L52.3503 92.1996L52.0274 96.7956Z" fill="#E86074"/>
<path fill-rule="evenodd" clip-rule="evenodd" d="M84.2598 11.3176L71.978 10.4549L70.3603 33.4832L61.149 32.8361L59.5312 55.8645L13.4745 52.629L12.9353 60.3051L6.79438 59.8737L6.14729 69.0851L12.2882 69.5165L11.3175 83.3335L22.0641 84.0884L21.3092 94.835L47.408 96.6684L46.3295 112.021L35.5829 111.266L34.828 122.012L22.5462 121.149L22.0069 128.826L11.2604 128.071L9.31909 155.705L50.7701 158.617L51.4172 149.405L68.3047 150.592L69.1675 138.31L89.1254 139.712L88.2626 151.994L111.291 153.611L110.536 164.358L147.381 166.946L149.431 137.777L138.684 137.022L139.223 129.346L126.941 128.483L127.696 117.737L116.95 116.982L117.705 106.235L126.916 106.882L127.24 102.277L145.662 103.571L146.309 94.3594L160.126 95.33L160.881 84.5835L162.417 84.6913L163.064 75.48L161.528 75.3721L162.391 63.0903L117.87 59.9627L118.409 52.2866L110.733 51.7474L112.135 31.7895L105.994 31.3581L107.288 12.9354L93.4712 11.9647L93.9026 5.82384L84.6912 5.17675L84.2598 11.3176ZM102.276 40.3537L96.1356 39.9223L97.4298 21.4996L80.5423 20.3133L78.9246 43.3416L69.7132 42.6946L68.0955 65.7229L22.0388 62.4874L21.176 74.7692L31.9225 75.5242L31.1676 86.2707L57.2664 88.1042L54.8937 121.879L44.1472 121.124L43.3922 131.871L31.1104 131.008L30.5712 138.684L19.8246 137.929L19.1775 147.14L42.2059 148.758L42.853 139.547L59.7404 140.733L60.6032 128.451L79.0259 129.746L79.3495 125.14L88.5608 125.787L88.2373 130.393L98.9838 131.148L98.121 143.429L121.149 145.047L120.394 155.794L138.817 157.088L139.572 146.341L128.826 145.586L129.365 137.91L117.083 137.047L117.838 126.301L107.091 125.546L109.14 96.3767L118.352 97.0238L118.675 92.4181L137.098 93.7123L137.745 84.501L151.562 85.4716L152.533 71.6546L108.011 68.527L108.551 60.8509L100.874 60.3116L102.276 40.3537Z" fill="#45060E"/>
<path fill-rule="evenodd" clip-rule="evenodd" d="M54.1082 87.542L31.3807 85.9454L32.0304 76.6963L63.849 78.9315L60.1671 131.343L51.0761 130.705L50.5346 138.412L36.8981 137.454L36.1401 148.245L19.4732 147.074L20.1229 137.825L27.6988 138.357L28.4568 127.566L42.0934 128.524L42.6348 120.817L51.7258 121.455L54.1082 87.542Z" fill="#BC3845"/>
<path fill-rule="evenodd" clip-rule="evenodd" d="M87.6975 21.2239L96.9642 21.8749L95.6727 40.2589L101.85 40.6929L100.451 60.609L108.174 61.1514L107.635 68.8115L152.424 71.9579L151.778 81.1499L97.7231 77.3525L98.2612 69.6925L90.539 69.15L91.9381 49.234L85.7603 48.8L87.6975 21.2239Z" fill="#BC3845"/>
</svg>
