<svg width="306" height="326" viewBox="0 0 306 326" fill="none" xmlns="http://www.w3.org/2000/svg">
<path d="M193.646 318H297V249.894H193.646V318Z" fill="#002711"/>
<path d="M8 318H113.694V249.894H8V318Z" fill="#002711"/>
<path d="M113.694 208.404V239.326H193.646V208.404H201.837V148.518H178.046V172.003H124.614V148.518H103.943V208.404H113.694Z" fill="#002711"/>
<path d="M297 8H193.646V62.4066V80.4116H113.694V8H8V249.894H113.694V239.326V208.404H103.943V148.518H124.614V172.003H178.046V148.518H201.837V208.404H193.646V239.326V249.894H297V8Z" fill="#61EAD9"/>
<path fill-rule="evenodd" clip-rule="evenodd" d="M0 0H122.79V72.1411H185.549V0H306V326H185.549V247.62H122.79V326H0V0ZM122.79 230.462H185.549V199.656H193.735V157.151H187.108V180.548H116.553V157.151H113.045V199.656H122.79V230.462ZM105.638 216.813V240.99H17.1516V17.1579H105.638V89.299H202.701V17.1579H288.848V240.99H202.701V216.813H210.887V139.993H169.957V163.39H133.704V139.993H95.893V216.813H105.638ZM288.848 258.148H202.701V308.842H288.848V258.148ZM17.1516 258.148H105.638V308.842H17.1516V258.148Z" fill="black"/>
</svg>
