<svg width="204" height="226" viewBox="0 0 204 226" fill="none" xmlns="http://www.w3.org/2000/svg">
<path d="M109.01 0H79.9286V8.72449H71.2041V15.5102H62.4796V24.2347H53.7551V58.1633H46V65.9184H37.2756V74.6429H28.5511V83.3673H109.01V67.8571V32.9592V15.5102V0Z" fill="#F7DB67"/>
<path d="M109.01 0H138.092V8.72449H146.816V15.5102H155.541V24.2347H164.265V58.1633H172.02V65.9184H180.745V74.6429H189.469V83.3673H109.01V67.8571V32.9592V15.5102V0Z" fill="#F7DB67"/>
<path d="M62.1633 84V108.215H54.4082V132.45H44.7143V142.143V146.021H16.6021H12.7246V132.45H4.00006V108.215H12.7246V99.4903V95.6128H32.1123H37.9286V107.245V112.092H25.3266" stroke="#56C3D0" stroke-width="8"/>
<path d="M80.1633 84.3228V107.243V112.09H71.4388V141.172V145.049H80.1633V156.682V160.56H71.4388H63.6837V174.131V178.978H39.449V190.611V194.488H29.7552V209.998H53.0205H54.9592V193.519V191.58" stroke="#CF304F" stroke-width="8"/>
<path d="M109.01 84.3584V110.51V113.418H92.5306V135.714H111.918H115.796V168.673V170.612H92.5306V185.153V188.061H107.071V201.633V202.602H118.704V212.296H109.01V221.02H101.255H98.347H97.3776" stroke="#56C3D0" stroke-width="8"/>
<path d="M134.214 84.3587V112.449H125.49H118.704V126.99H141V139.592H158.449V152.194V160.919H148.755H143.908V186.123H157.48V211.327H135.184V190" stroke="#CF304F" stroke-width="8"/>
<path d="M150.694 84.3369V103.725H165.235V115.357H183.653V132.806V136.684H174.929V161.888H198.194V172.551V179.337H184.623V191.939H174.929V221.021H199.163V198.725" stroke="#56C3D0" stroke-width="8"/>
<rect width="9.69388" height="9.69388" transform="matrix(-1 0 0 1 92.5308 19.3882)" fill="black"/>
<rect width="9.69388" height="9.69388" transform="matrix(-1 0 0 1 135.184 19.3882)" fill="black"/>
</svg>
