<svg width="204" height="226" viewBox="0 0 204 226" fill="none" xmlns="http://www.w3.org/2000/svg">
<path d="M94.1531 0H123.235V8.72449H131.959V15.5102H140.684V24.2347H149.408V58.1633H157.163V65.9184H165.888V74.6429H174.612V83.3673H94.1531V67.8571V32.9592V15.5102V0Z" fill="#F7DB67"/>
<path d="M94.1531 0H65.0714V8.72449H56.347V15.5102H47.6225V24.2347H38.898V58.1633H31.1429V65.9184H22.4184V74.6429H13.6939V83.3673H94.1531V67.8571V32.9592V15.5102V0Z" fill="#F7DB67"/>
<path d="M141 84V108.215H148.755V132.45H158.449V142.143V146.021H186.561H190.439V132.45H199.163V108.215H190.439V99.4903V95.6128H171.051H165.235V107.245V112.092H177.837" stroke="#56C3D0" stroke-width="8"/>
<path d="M123 84.3228V107.243V112.09H131.724V141.172V145.049H123V156.682V160.56H131.724H139.48V174.131V178.978H163.714V190.611V194.488H173.408V209.998H150.143H148.204V193.519V191.58" stroke="#CF304F" stroke-width="8"/>
<path d="M94.1532 84.3584V110.51V113.418H110.633V135.714H91.2451H87.3675V168.673V170.612H110.633V185.153V188.061H96.092V201.633V202.602H84.4594V212.296H94.1532V221.02H101.908H104.816H105.786" stroke="#56C3D0" stroke-width="8"/>
<path d="M68.949 84.3587V112.449H77.6735H84.4593V126.99H62.1633V139.592H44.7144V152.194V160.919H54.4082H59.2552V186.123H45.6837V211.327H67.9797V190" stroke="#CF304F" stroke-width="8"/>
<path d="M52.4694 84.3369V103.725H37.9286V115.357H19.5102V132.806V136.684H28.2347V161.888H4.96939V172.551V179.337H18.5408V191.939H28.2347V221.021H4V198.725" stroke="#56C3D0" stroke-width="8"/>
<rect x="110.632" y="19.3882" width="9.69388" height="9.69388" fill="black"/>
<rect x="67.9795" y="19.3882" width="9.69388" height="9.69388" fill="black"/>
</svg>
