<svg width="218" height="186" viewBox="0 0 218 186" fill="none" xmlns="http://www.w3.org/2000/svg">
<path d="M62.625 148.891L62.0905 150.82L119.566 166.743L121.015 167.144L121.549 165.215L124.447 166.017L126.986 156.853L125.054 156.318L125.455 154.871L123.04 154.202L124.51 148.896L128.857 150.1L129.525 147.688L136.287 149.562L136.687 148.115L143.449 149.988L143.85 148.541L150.129 150.28L151.064 146.904L155.411 148.108L161.207 149.714L162.142 146.337L167.455 147.809L167.99 145.88L173.785 147.485L174.453 145.073L175.419 145.341L180.249 146.679L181.452 142.338L183.384 142.873L184.186 139.979L184.453 139.014L187.351 139.817L188.152 136.923L191.05 137.726L193.456 129.044L190.558 128.241L191.894 123.418L188.996 122.615L189.53 120.685L186.633 119.883L187.434 116.988L183.087 115.784L183.756 113.373L185.687 113.908L186.756 110.049L189.171 110.718L193.18 96.2477L194.115 92.8713L190.735 91.9347L192.071 87.1113L188.69 86.1747L189.492 83.2806L186.594 82.4778L187.529 79.1014L174.488 75.4888L176.092 69.7007L173.677 69.0317L175.414 62.7612L172.033 61.8246L172.835 58.9306L168.971 57.8602L169.639 55.4485L165.292 54.2443L165.827 52.3149L166.094 51.3502L165.128 51.0826L157.4 48.9418L156.866 50.8712L152.036 49.5332L151.368 51.9449L147.504 50.8745L147.103 52.3215L143.239 51.2511L145.244 44.016L142.346 43.2132L142.88 41.2838L139.982 40.481L140.517 38.5516L138.102 37.8826L138.77 35.4709L136.355 34.8019L137.023 32.3902L132.676 31.186L133.344 28.7743L121.753 25.5631L120.817 28.9395L118.402 28.2705L115.504 27.4677L114.836 29.8794L112.904 29.3442L112.236 31.7559L109.338 30.9531L108.804 32.8825L106.872 32.3473L106.204 34.759L103.306 33.9562L101.836 39.262L100.387 38.8606L96.5233 37.7902L93.1424 36.8536L93.5433 35.4066L90.6454 34.6038L92.1152 29.298L82.9385 26.7558L82.0031 30.1322L77.6563 28.928L77.1218 30.8574L73.2579 29.787L72.5898 32.1987L70.6579 31.6635L70.1234 33.5929L68.6744 33.1915L66.9373 39.4619L64.0394 38.6591L61.7678 46.859L59.8359 46.3238L51.6252 44.0492L47.7613 42.9788L46.9595 45.8728L43.5787 44.9362L43.1778 46.3833L41.2458 45.8481L40.9786 46.8127L40.1769 49.7068L38.2449 49.1716L37.0423 53.5127L35.1104 52.9775L31.6362 65.5184L33.5681 66.0536L32.4992 69.9124L34.9141 70.5814L34.3796 72.5108L33.7115 74.9225L29.3646 73.7183L28.8301 75.6476L26.8982 75.1124L26.2301 77.5242L24.2982 76.989L23.6301 79.4007L22.1811 78.9993L21.2457 82.3757L17.3819 81.3053L15.2439 89.0228L16.6929 89.4242L16.0247 91.8359L18.4397 92.5049L18.0388 93.9519L20.9367 94.7547L20.2686 97.1664L21.7175 97.5678L21.0494 99.9795L22.9814 100.515L22.4469 102.444L25.8278 103.381L25.2933 105.31L32.0551 107.183L31.5206 109.113L35.8675 110.317L35.1993 112.729L40.0292 114.067L39.4947 115.996L45.2905 117.602L44.6224 120.013L49.9353 121.485L49.4008 123.414L56.6455 125.421L56.111 127.351L62.8728 129.224L62.3383 131.153L65.2362 131.956L64.7018 133.886L66.6337 134.421L65.2975 139.244L62.8826 138.575L62.0808 141.469L59.6659 140.8L58.4633 145.141L60.8782 145.81L60.2101 148.222L62.625 148.891Z" fill="#CF6441"/>
<path fill-rule="evenodd" clip-rule="evenodd" d="M135.874 27.2126L120.389 22.923L119.451 26.3079L114.129 24.8333L113.459 27.2512L111.523 26.715L110.853 29.1328L107.95 28.3285L107.414 30.2628L105.479 29.7266L104.809 32.1444L101.905 31.3401L100.432 36.6593L95.5929 35.3188L95.9948 33.8681L93.0914 33.0638L94.565 27.7445L81.4998 24.1251L80.5621 27.5101L76.207 26.3036L75.6712 28.2379L71.8 27.1655L71.1302 29.5833L69.1946 29.0471L68.6588 30.9814L67.2071 30.5792L65.4656 36.8656L62.5622 36.0613L60.2849 44.2819L46.2519 40.3944L45.4482 43.2958L42.0609 42.3574L41.659 43.8081L39.7234 43.2719L38.6517 47.1405L36.7162 46.6043L35.5105 50.9564L33.5749 50.4202L29.0203 66.8614L30.9558 67.3976L29.8842 71.2662L32.3036 71.9364L32.1697 72.42L27.8146 71.2135L27.2788 73.1478L25.3432 72.6116L24.6734 75.0294L22.7378 74.4932L22.068 76.9111L20.6163 76.5089L19.6786 79.8939L15.8074 78.8214L12.5923 90.4271L14.044 90.8292L13.3742 93.247L15.7937 93.9173L15.3918 95.368L18.2952 96.1723L17.6254 98.5901L19.0771 98.9923L18.4073 101.41L20.3428 101.946L19.807 103.881L23.1943 104.819L22.6584 106.753L29.433 108.63L28.8971 110.564L33.2522 111.771L32.5824 114.189L37.4213 115.529L36.8855 117.463L42.6922 119.072L42.0224 121.49L47.3452 122.964L46.8094 124.899L54.0678 126.909L53.532 128.844L60.3065 130.72L59.7707 132.655L62.6741 133.459L62.1382 135.393L64.0738 135.929L63.8059 136.897L61.3864 136.226L60.5826 139.128L58.1631 138.457L55.8858 146.678L58.3053 147.348L57.6355 149.766L60.055 150.436L59.5191 152.371L122.425 169.798L122.961 167.863L125.865 168.668L129.482 155.611L127.546 155.075L127.948 153.624L125.528 152.954L125.93 151.503L130.285 152.71L130.955 150.292L137.73 152.169L138.132 150.718L144.906 152.595L145.308 151.144L151.599 152.887L152.536 149.502L162.698 152.317L163.636 148.932L168.959 150.406L169.495 148.472L175.301 150.081L175.971 147.663L181.778 149.272L182.984 144.92L184.919 145.456L185.991 141.587L188.894 142.392L189.698 139.49L192.601 140.294L196.084 127.722L193.181 126.917L194.521 122.082L191.617 121.277L192.153 119.343L189.25 118.539L190.053 115.637L187.634 114.967L188.304 112.549L190.723 113.22L196.752 91.4591L193.364 90.5207L194.704 85.685L191.317 84.7467L192.12 81.8453L189.217 81.041L190.155 77.656L177.09 74.0366L178.697 68.2338L176.278 67.5635L178.019 61.2772L174.632 60.3388L175.436 57.4374L171.564 56.365L172.234 53.9471L167.879 52.7407L168.683 49.8393L156.102 46.3539L155.566 48.2882L150.727 46.9477L150.057 49.3655L146.186 48.2931L147.793 42.4903L144.89 41.686L145.426 39.7517L142.523 38.9474L143.058 37.0131L140.639 36.3429L141.309 33.925L138.889 33.2548L139.559 30.8369L135.204 29.6305L135.874 27.2126ZM130.931 30.0087L130.261 32.4266L134.616 33.633L133.946 36.0509L136.366 36.7211L135.696 39.139L138.116 39.8092L137.58 41.7435L140.483 42.5478L139.947 44.4821L142.851 45.2864L140.841 52.5399L148.584 54.6847L148.985 53.234L152.857 54.3064L153.526 51.8886L158.365 53.2291L158.901 51.2949L163.74 52.6354L162.936 55.5368L167.291 56.7433L166.622 59.1611L170.493 60.2335L169.689 63.1349L173.076 64.0733L171.335 70.3596L173.754 71.0299L172.147 76.8327L185.212 80.4521L184.274 83.8371L187.178 84.6414L186.374 87.5428L189.761 88.4812L188.421 93.3168L191.809 94.2552L187.924 108.279L185.504 107.608L184.433 111.477L182.497 110.941L180.756 117.227L185.111 118.434L184.307 121.335L187.21 122.139L186.674 124.074L189.578 124.878L188.238 129.714L191.142 130.518L189.802 135.353L186.899 134.549L186.095 137.451L183.191 136.646L182.12 140.515L180.184 139.979L178.978 144.331L173.172 142.722L172.502 145.14L166.695 143.531L166.159 145.466L160.836 143.991L159.899 147.376L149.737 144.561L148.799 147.946L142.509 146.203L142.107 147.654L135.332 145.777L134.93 147.228L128.156 145.351L127.486 147.769L123.131 146.562L120.586 155.75L123.005 156.42L122.603 157.871L124.539 158.407L123.065 163.727L120.162 162.922L119.626 164.857L64.462 149.575L64.9978 147.64L62.5783 146.97L63.2481 144.552L60.8287 143.882L60.9626 143.398L63.3821 144.069L64.1859 141.167L66.6053 141.838L69.0166 133.133L67.0811 132.597L67.6169 130.663L64.7135 129.859L65.2494 127.924L58.4748 126.048L59.0107 124.113L51.7523 122.103L52.2881 120.168L46.9653 118.694L47.6351 116.276L41.8283 114.667L42.3642 112.733L37.5252 111.392L38.195 108.975L33.84 107.768L34.3758 105.834L27.6013 103.957L28.1371 102.023L24.7498 101.084L25.2857 99.1502L23.3501 98.614L24.0199 96.1962L22.5682 95.794L23.238 93.3762L20.3347 92.5719L20.7366 91.1212L18.3171 90.4509L18.9869 88.0331L17.5352 87.6309L18.6069 83.7624L22.478 84.8348L23.4158 81.4499L24.8675 81.852L25.5373 79.4342L27.4729 79.9704L28.1427 77.5525L30.0782 78.0887L30.6141 76.1545L34.9691 77.361L37.2465 69.1403L34.827 68.4701L35.8987 64.6015L33.9631 64.0653L36.3744 55.3611L38.31 55.8973L39.5156 51.5452L41.4512 52.0814L42.5229 48.2129L44.4585 48.7491L44.8604 47.2984L48.2476 48.2368L49.0514 45.3354L63.0844 49.2229L65.3617 41.0022L68.2651 41.8065L70.0066 35.5202L71.4583 35.9223L71.9941 33.9881L73.9297 34.5243L74.5995 32.1064L78.4706 33.1789L79.0065 31.2446L83.3616 32.4511L84.2993 29.0661L89.6221 30.5407L88.1486 35.8599L91.0519 36.6642L90.65 38.1149L103.231 41.6003L104.705 36.281L107.608 37.0853L108.278 34.6675L110.214 35.2037L110.749 33.2694L113.653 34.0738L114.323 31.6559L116.258 32.1921L116.928 29.7743L122.251 31.2489L123.189 27.8639L130.931 30.0087Z" fill="#E88640"/>
<path fill-rule="evenodd" clip-rule="evenodd" d="M118.235 150.841L121.549 151.759L122.598 147.974L115.442 145.992L114.656 148.831L113.215 148.431L112.691 150.324L110.77 149.792L110.115 152.157L106.753 151.226L106.229 153.119L103.828 152.454L103.173 154.819L100.772 154.154L99.9852 156.993L82.6976 152.204L83.484 149.365L80.1225 148.434L80.6468 146.541L79.2062 146.142L79.8615 143.777L77.9407 143.244L78.465 141.352L75.1035 140.421L76.152 136.636L73.751 135.97L74.0131 135.024L69.2347 133.7L68.1862 137.485L69.1229 137.745L68.8607 138.691L71.2618 139.356L70.2132 143.141L73.5747 144.073L73.0504 145.965L74.9713 146.497L74.3159 148.863L75.7566 149.262L75.2323 151.155L78.5938 152.086L78.3251 153.055L103.296 159.973L103.565 159.003L105.966 159.669L106.621 157.303L109.022 157.968L109.546 156.076L112.908 157.007L113.563 154.641L115.484 155.173L116.008 153.281L117.449 153.68L118.235 150.841Z" fill="#431400" fill-opacity="0.4"/>
<path fill-rule="evenodd" clip-rule="evenodd" d="M97.468 39.9526L92.9397 56.2986L95.8717 57.1108L91.1681 74.0896L93.6115 74.7665L90.1174 87.3793L92.0721 87.9207L89.2499 98.108L90.2273 98.3788L87.2707 109.051L89.7141 109.728L87.1607 118.945L88.6267 119.351L85.9389 129.053L89.8483 130.136L86.623 141.779L91.5096 143.133L92.5847 139.252L91.6074 138.981L94.8327 127.338L90.9234 126.255L93.6111 116.553L92.1451 116.147L94.6985 106.93L92.2552 106.253L95.2117 95.5809L94.2344 95.3101L97.0565 85.1229L95.1018 84.5814L98.5959 71.9686L96.1526 71.2917L100.856 54.3129L97.9242 53.5007L101.377 41.0356L97.468 39.9526Z" fill="#431400" fill-opacity="0.4"/>
<path fill-rule="evenodd" clip-rule="evenodd" d="M144.903 53.8475L140.524 69.6554L137.591 68.8432L132.897 85.7879L130.454 85.111L126.967 97.6985L125.012 97.157L122.196 107.324L121.218 107.053L118.268 117.704L115.824 117.027L113.276 126.226L111.81 125.82L109.128 135.502L105.219 134.419L102 146.039L97.113 144.685L98.1859 140.812L99.1633 141.083L102.382 129.463L106.291 130.546L108.974 120.864L110.44 121.27L112.988 112.071L115.431 112.748L118.382 102.097L119.359 102.368L122.176 92.201L124.131 92.7425L127.618 80.155L130.061 80.8318L134.755 63.8871L137.687 64.6993L140.993 52.7645L144.903 53.8475Z" fill="#431400" fill-opacity="0.4"/>
<path fill-rule="evenodd" clip-rule="evenodd" d="M36.0159 77.9837L32.1723 76.9189L31.1029 80.779L35.427 81.9769L34.3577 85.837L37.7209 86.7687L36.7852 90.1463L41.1093 91.3442L40.4409 93.7568L43.8041 94.6885L42.4674 99.5136L46.3111 100.578L45.1081 104.921L48.9517 105.986L47.7487 110.328L51.5923 111.393L50.924 113.806L55.2481 115.004L54.8471 116.451L58.6907 117.516L58.0224 119.929L59.4638 120.328L59.0628 121.775L61.465 122.441L61.064 123.889L65.3881 125.086L64.8535 127.016L68.2166 127.948L67.281 131.326L72.0855 132.657L71.5508 134.587L78.2772 136.45L79.3466 132.59L76.4638 131.792L76.9985 129.861L72.194 128.53L73.1297 125.153L69.7665 124.221L70.3011 122.291L65.977 121.093L66.378 119.646L63.9758 118.98L64.3768 117.533L62.9354 117.133L63.6037 114.721L59.7601 113.656L60.1611 112.208L55.837 111.011L56.5053 108.598L52.6617 107.533L53.8647 103.191L50.0211 102.126L51.2241 97.7831L47.3805 96.7183L48.7171 91.8932L45.354 90.9615L46.0223 88.5489L41.6982 87.351L42.6339 83.9734L39.2707 83.0417L40.34 79.1816L36.0159 77.9837Z" fill="#431400" fill-opacity="0.4"/>
<path fill-rule="evenodd" clip-rule="evenodd" d="M179.768 117.053L183.658 118.13L182.589 121.99L178.212 120.778L177.143 124.638L173.739 123.695L172.804 127.073L168.427 125.861L167.759 128.273L164.355 127.33L163.019 132.155L159.129 131.078L157.926 135.42L154.036 134.343L152.833 138.685L148.943 137.608L148.274 140.02L143.898 138.808L143.497 140.256L139.607 139.178L138.939 141.591L137.48 141.186L137.079 142.634L134.648 141.96L134.247 143.408L129.871 142.196L129.336 144.126L125.932 143.183L124.997 146.56L120.134 145.213L119.6 147.143L112.792 145.258L113.861 141.397L116.779 142.206L117.314 140.276L122.176 141.623L123.112 138.245L126.515 139.188L127.05 137.258L131.426 138.47L131.827 137.023L134.259 137.696L134.66 136.249L136.118 136.653L136.787 134.24L140.677 135.318L141.078 133.87L145.454 135.083L146.122 132.67L150.012 133.748L151.215 129.405L155.105 130.483L156.308 126.14L160.198 127.218L161.535 122.393L164.939 123.335L165.607 120.923L169.983 122.135L170.919 118.758L174.323 119.701L175.392 115.84L179.768 117.053Z" fill="#431400" fill-opacity="0.4"/>
<path fill-rule="evenodd" clip-rule="evenodd" d="M64.6963 48.2201L61.2744 47.2722L60.7382 49.2079L60.2493 49.0725L58.6406 54.8796L61.5736 55.6922L59.1605 64.4029L62.0935 65.2154L61.021 69.0869L63.4652 69.764L61.0521 78.4747L64.9628 79.5581L63.7563 83.9134L65.7116 84.4551L63.9688 90.7462L67.3907 91.6941L66.0501 96.5334L68.0054 97.0751L66.6648 101.914L69.5978 102.727L68.1231 108.05L71.0562 108.863L70.1177 112.25L73.0508 113.063L72.1123 116.45L75.5342 117.398L74.3276 121.754L76.283 122.295L75.6127 124.715L80.5011 126.069L79.0264 131.392L81.4706 132.069L79.7278 138.361L83.6385 139.444L83.7725 138.96L85.7279 139.502L86.6663 136.114L84.711 135.572L86.4538 129.281L84.0096 128.604L85.4843 123.281L80.5959 121.927L81.2662 119.507L79.3108 118.965L80.5174 114.61L77.0955 113.662L78.034 110.275L75.1009 109.462L76.0394 106.075L73.1063 105.262L74.581 99.9389L71.648 99.1264L72.9886 94.2871L71.0333 93.7454L72.3739 88.9061L68.952 87.9581L70.6948 81.667L68.7395 81.1254L69.946 76.77L66.0353 75.6866L68.4484 66.9759L66.0042 66.2988L67.0767 62.4274L64.1437 61.6148L66.5568 52.9041L63.6238 52.0916L64.6963 48.2201Z" fill="#431400" fill-opacity="0.4"/>
<path fill-rule="evenodd" clip-rule="evenodd" d="M170.09 75.9086L173.46 76.8424L172.645 79.7865L173.126 79.9199L171.51 85.7563L168.62 84.9559L166.195 93.7105L163.306 92.9101L162.228 96.8011L159.82 96.1341L157.395 104.889L153.543 103.821L152.33 108.199L150.404 107.665L148.652 113.988L145.281 113.054L143.934 117.918L142.008 117.384L140.661 122.248L137.771 121.447L136.289 126.798L133.4 125.997L132.457 129.402L129.567 128.601L128.624 132.006L125.254 131.072L124.041 135.449L122.115 134.916L121.441 137.348L116.626 136.014L115.144 141.364L112.736 140.697L110.984 147.019L107.132 145.952L107.267 145.466L105.34 144.932L106.284 141.528L108.21 142.061L109.961 135.739L112.369 136.406L113.851 131.055L118.667 132.389L119.34 129.958L121.266 130.491L122.479 126.114L125.85 127.048L126.793 123.643L129.682 124.444L130.625 121.039L133.515 121.839L134.997 116.489L137.886 117.29L139.233 112.426L141.16 112.96L142.507 108.096L145.878 109.03L147.629 102.707L149.556 103.241L150.768 98.8633L154.62 99.9305L157.046 91.1759L159.453 91.8429L160.531 87.952L163.421 88.7524L165.846 79.9978L168.735 80.7982L170.09 75.9086Z" fill="#431400" fill-opacity="0.4"/>
</svg>
