<svg width="249" height="333" viewBox="0 0 249 333" fill="none" xmlns="http://www.w3.org/2000/svg">
<path d="M241 325V317.173V260.035H143.884V309.737V325H241Z" fill="#002711"/>
<path d="M104.333 325V309.737V260.035H8V304.258V325H104.333Z" fill="#002711"/>
<path d="M8 15.8272V25.2198V260.035H104.333V235.379H143.884V260.035H241V171.588V133.235V38.1346H206.148V8H8V15.8272Z" fill="#61EAD9"/>
<path d="M143.884 235.379H104.333V260.035V309.737H143.884V260.035V235.379Z" fill="black"/>
<path d="M101 180H148V229H124.5H101V180Z" fill="#002711"/>
<path d="M180 131H232V154H180V131Z" fill="#002711"/>
<path d="M99 78H151V101H99V78Z" fill="#002711"/>
<path d="M204 146H232V178H204V146Z" fill="#002711"/>
<path d="M124 91L124 129L99 129L99 91L124 91Z" fill="#002711"/>
<path fill-rule="evenodd" clip-rule="evenodd" d="M0 0H214.319V30.0246H249V333H135.216V317.793H113.005V333H0V0ZM113.005 300.636H135.216V243.706H113.005V300.636ZM152.361 315.843H231.854V268.272H152.361V315.843ZM152.361 251.115H231.854V47.1815H197.174V17.1569H17.1455V251.115H95.8592V226.549H152.361V251.115ZM95.8592 268.272V315.843H17.1455V268.272H95.8592Z" fill="black"/>
</svg>
