<svg width="170" height="169" viewBox="0 0 170 169" fill="none" xmlns="http://www.w3.org/2000/svg">
<path d="M119.214 40.4403L160.599 94.9989L141.817 109.246L136.389 102.091L131.023 106.162L128.309 102.584L121.154 108.011L116.405 101.751L111.038 105.821L115.787 112.082L84.4832 135.827L79.7341 129.567L73.4733 134.316L68.7242 128.055L63.3578 132.126L57.9303 124.97L51.6694 129.719L33.3516 105.57L39.6124 100.821L29.4358 87.4053L34.8022 83.3347L30.0532 77.0739L36.314 72.3248L32.2434 66.9584L45.6594 56.7818L40.9103 50.5209L64.1649 32.8815L68.9139 39.1424L81.4356 29.6442L85.5062 35.0106L92.6615 29.5831L98.7674 37.6327L104.134 33.5621L112.954 45.1894L119.214 40.4403Z" fill="#359CC9"/>
<path fill-rule="evenodd" clip-rule="evenodd" d="M32.491 49.0658L65.033 24.3815L69.8327 30.7091L82.4879 21.1097L86.6019 26.5333L93.8335 21.0479L100.005 29.1834L105.428 25.0694L114.342 36.8206L120.67 32.0209L169.352 96.2008L141.33 117.457L135.845 110.225L130.421 114.339L127.678 110.723L83.3853 144.322L78.5856 137.994L72.258 142.794L67.4583 136.466L62.0346 140.58L56.5492 133.349L50.2216 138.148L24.8516 104.702L31.1792 99.9027L20.8941 86.3436L26.3178 82.2295L21.5181 75.9019L27.8456 71.1022L23.7316 65.6785L37.2907 55.3934L32.491 49.0658ZM48.3872 51.2485L53.1869 57.5761L39.6278 67.8612L43.7418 73.2849L37.4142 78.0846L42.2139 84.4122L36.7903 88.5262L47.0754 102.085L40.7478 106.885L52.4043 122.252L58.7319 117.452L64.2173 124.684L69.6409 120.57L74.4407 126.897L80.7683 122.098L85.568 128.425L108.167 111.283L103.367 104.956L117.83 93.9851L122.63 100.313L129.861 94.8273L132.604 98.4431L138.028 94.329L143.513 101.561L153.456 94.0181L118.487 47.9171L112.159 52.7168L103.246 40.9655L97.8218 45.0796L91.6508 36.9441L84.4192 42.4295L80.3052 37.0058L67.65 46.6053L62.8503 40.2777L48.3872 51.2485Z" fill="#1E356C"/>
<path fill-rule="evenodd" clip-rule="evenodd" d="M58.0846 74.7405L83.4248 55.5189L91.7129 66.4452L98.048 61.6399L118.077 88.0452L110.837 93.537L96.3332 74.416L91.8082 77.8484L104.24 94.2379L76.1849 115.519L54.7742 87.2925L62.9193 81.1142L58.0846 74.7405ZM70.85 76.5328L75.6847 82.9065L67.5396 89.0849L77.8997 102.743L91.4748 92.4455L88.7121 88.8034L85.0921 91.5494L79.5667 84.2651L88.6168 77.4003L81.7101 68.295L70.85 76.5328Z" fill="#000846"/>
</svg>
