<svg width="216" height="233" viewBox="0 0 216 233" fill="none" xmlns="http://www.w3.org/2000/svg">
<path d="M65.1447 57.3543L63.4113 56.3526L33.5712 107.991L32.8189 109.292L34.5523 110.294L33.0478 112.898L41.2816 117.656L42.2846 115.92L43.5847 116.671L44.8385 114.502L49.6054 117.256L47.3486 121.162L49.5153 122.414L46.0047 128.489L47.3048 129.24L43.7942 135.315L45.0943 136.066L41.8344 141.708L44.8679 143.461L42.6111 147.366L39.602 152.573L42.6355 154.326L39.8772 159.099L41.6106 160.101L38.6015 165.308L40.7683 166.56L40.2668 167.428L37.7592 171.768L41.6594 174.021L40.6564 175.757L43.2565 177.26L44.1233 177.76L42.6187 180.364L45.2188 181.867L43.7143 184.47L51.5147 188.978L53.0193 186.374L57.3528 188.878L58.8574 186.275L60.5908 187.277L62.0953 184.673L64.6955 186.176L66.9523 182.27L69.1191 183.522L68.116 185.258L71.5829 187.261L70.3291 189.431L83.3298 196.944L86.3633 198.697L88.1186 195.659L92.4522 198.163L94.2075 195.126L96.8076 196.628L98.3121 194.025L101.346 195.778L108.116 184.062L113.316 187.067L114.57 184.897L120.204 188.153L121.959 185.115L124.559 186.618L126.565 183.146L128.732 184.398L130.989 180.493L132.722 181.495L133.589 181.995L134.091 181.128L138.103 174.185L136.369 173.183L138.877 168.844L136.71 167.592L138.716 164.12L137.416 163.369L139.422 159.897L145.922 163.654L147.427 161.05L149.16 162.052L150.665 159.448L152.398 160.45L153.652 158.28L155.819 159.532L157.073 157.363L159.239 158.615L161.496 154.709L163.663 155.962L169.681 145.547L166.648 143.794L167.902 141.624L169.406 139.021L167.239 137.769L168.242 136.033L166.076 134.781L167.58 132.177L165.847 131.176L166.85 129.44L164.683 128.188L166.187 125.584L161.421 122.83L162.173 121.528L164.179 118.056L165.934 115.019L167.234 115.77L168.739 113.166L173.506 115.921L178.27 107.676L175.237 105.923L177.493 102.018L175.76 101.016L177.766 97.5448L175.599 96.2927L176.602 94.557L174.869 93.5553L175.621 92.2535L169.988 88.998L171.492 86.3944L164.125 82.1372L165.128 80.4014L169.391 73.0246L171.397 69.5531L168.797 68.0506L170.552 65.0131L169.252 64.2618L170.255 62.5261L169.388 62.0252L166.788 60.5227L167.791 58.7869L163.891 56.5331L164.894 54.7974L153.627 48.2863L152.624 50.0221L149.157 48.0187L147.903 50.1883L146.17 49.1866L144.003 47.9345L146.26 44.0291L144.526 43.0274L145.529 41.2917L143.363 40.0396L144.366 38.3039L142.199 37.0517L142.951 35.7499L139.918 33.997L141.924 30.5255L134.99 26.5187L134.238 27.8205L132.071 26.5684L130.817 28.7381L129.517 27.9868L128.012 30.5904L125.846 29.3383L125.093 30.6401L122.927 29.3879L121.924 31.1237L120.19 30.122L118.435 33.1595L116.701 32.1578L113.191 38.2329L111.457 37.2312L109.201 41.1365L107.034 39.8844L104.526 44.2238L102.793 43.2221L99.7838 48.4293L97.617 47.1771L94.8586 51.9504L93.1252 50.9487L89.3639 57.4577L87.6304 56.456L84.1198 62.5311L82.3864 61.5294L80.8819 64.1329L79.1484 63.1312L78.1454 64.867L73.8119 62.3627L75.0656 60.1931L72.4655 58.6905L73.7193 56.5209L69.8191 54.267L68.5653 56.4367L66.3985 55.1846L65.1447 57.3543Z" fill="#F6C0D2"/>
<path fill-rule="evenodd" clip-rule="evenodd" d="M164.54 158.802L172.579 144.89L169.538 143.133L172.302 138.35L170.129 137.095L171.134 135.356L168.962 134.101L170.469 131.492L168.731 130.488L169.736 128.749L167.564 127.494L169.072 124.885L164.293 122.124L166.805 117.776L168.108 118.529L169.616 115.921L174.395 118.682L181.178 106.944L178.137 105.187L180.398 101.274L178.66 100.27L180.67 96.7917L178.497 95.5364L179.502 93.7974L177.764 92.7932L178.518 91.4889L172.87 88.2252L174.378 85.6166L166.992 81.3486L174.278 68.7409L171.671 67.2345L173.429 64.1913L172.126 63.4381L173.131 61.6991L169.655 59.6906L170.66 57.9516L166.75 55.6921L167.755 53.9531L152.984 45.417L151.979 47.156L148.503 45.1476L147.247 47.3213L146.812 47.0702L149.073 43.1575L147.336 42.1533L148.341 40.4143L146.168 39.159L147.173 37.42L145.001 36.1647L145.755 34.8604L142.713 33.103L144.723 29.625L134.296 23.5996L133.543 24.9038L131.37 23.6485L130.114 25.8223L128.811 25.0691L127.303 27.6776L125.131 26.4223L124.378 27.7266L122.205 26.4713L121.2 28.2103L119.463 27.206L117.704 30.2493L115.966 29.245L112.449 35.3316L110.711 34.3273L108.45 38.2401L106.278 36.9848L103.765 41.3323L102.028 40.328L99.0128 45.545L96.8405 44.2897L94.077 49.072L92.3392 48.0678L88.5707 54.589L86.8329 53.5848L83.3157 59.6713L81.5779 58.667L80.0705 61.2756L78.3327 60.2713L77.3277 62.0103L76.4588 61.5082L77.715 59.3344L75.1082 57.8281L76.3644 55.6543L68.9787 51.3863L67.7225 53.5601L65.5502 52.3048L64.2941 54.4785L62.5563 53.4743L29.8964 109.992L31.6342 110.996L30.1268 113.605L41.8571 120.383L42.862 118.644L44.1654 119.397L45.4215 117.224L46.7249 117.977L44.4638 121.89L46.6361 123.145L43.1189 129.231L44.4223 129.985L40.905 136.071L42.2084 136.824L38.9424 142.476L41.9836 144.233L36.7078 153.363L39.749 155.121L36.9854 159.903L38.7233 160.907L35.7085 166.124L37.8808 167.379L34.866 172.596L38.7761 174.856L37.7712 176.595L41.2469 178.603L39.7395 181.212L42.3462 182.718L40.8388 185.327L52.1347 191.854L53.6421 189.246L57.9866 191.756L59.494 189.148L61.2318 190.152L62.7392 187.544L65.3459 189.05L66.6021 186.876L68.7744 188.132L67.5182 190.305L87.0687 201.603L88.8273 198.56L93.1719 201.07L94.9305 198.027L97.5372 199.533L99.0446 196.925L102.086 198.682L108.869 186.944L114.082 189.957L115.339 187.783L120.987 191.047L122.745 188.004L125.352 189.51L127.362 186.032L129.534 187.287L131.795 183.374L134.402 184.881L140.934 173.577L139.196 172.573L141.708 168.226L139.536 166.97L141.546 163.492L146.759 166.505L148.267 163.896L150.004 164.901L151.512 162.292L153.25 163.296L154.506 161.123L156.678 162.378L157.934 160.204L160.107 161.46L162.368 157.547L164.54 158.802ZM163.074 153.316L160.902 152.06L158.641 155.973L156.468 154.718L155.212 156.891L153.04 155.636L151.784 157.81L150.046 156.806L148.539 159.414L146.801 158.41L145.293 161.018L138.777 157.253L134.757 164.209L136.06 164.962L134.05 168.44L136.223 169.695L133.71 174.043L135.448 175.047L132.936 179.394L130.329 177.888L128.068 181.801L125.896 180.545L123.886 184.023L121.279 182.517L119.521 185.56L113.873 182.297L112.617 184.47L107.403 181.458L100.62 193.196L97.5788 191.438L96.0714 194.047L93.4647 192.541L91.7061 195.584L87.3615 193.073L85.6029 196.117L73.0037 188.836L74.2598 186.662L70.7842 184.654L71.7891 182.915L66.1412 179.651L63.8801 183.564L61.2734 182.057L59.766 184.666L58.0282 183.661L56.5208 186.27L52.1763 183.759L50.6689 186.368L46.3243 183.857L47.8317 181.249L45.225 179.742L46.7323 177.134L43.2567 175.125L44.2616 173.386L40.3515 171.127L43.3663 165.91L41.194 164.655L44.2087 159.438L42.4709 158.433L45.2345 153.651L42.1933 151.894L47.4691 142.764L44.4279 141.006L47.6939 135.355L46.3905 134.602L49.9078 128.515L48.6044 127.762L52.1216 121.675L49.9493 120.42L52.2104 116.507L43.9557 111.737L42.6996 113.911L41.3962 113.158L40.3913 114.897L35.6123 112.135L37.1197 109.527L35.3818 108.522L64.022 58.9608L65.7599 59.965L67.016 57.7913L69.1883 59.0466L70.4445 56.8728L70.8789 57.1239L69.6228 59.2976L72.2295 60.804L70.9733 62.9777L78.7935 67.4968L79.7985 65.7578L81.5363 66.762L83.0437 64.1535L84.7815 65.1578L88.2987 59.0713L90.0365 60.0755L93.805 53.5542L95.5428 54.5585L98.3063 49.7762L100.479 51.0315L103.493 45.8145L105.231 46.8188L107.743 42.4712L109.916 43.7265L112.177 39.8138L113.915 40.818L117.432 34.7315L119.17 35.7358L120.928 32.6925L122.666 33.6967L123.671 31.9577L125.843 33.213L126.597 31.9088L128.769 33.1641L130.277 30.5556L131.58 31.3088L132.836 29.135L135.008 30.3903L135.762 29.086L139.238 31.0945L137.228 34.5725L140.269 36.3299L139.515 37.6342L141.688 38.8895L140.683 40.6285L142.855 41.8838L141.85 43.6228L143.588 44.627L141.327 48.5398L148.713 52.8078L149.969 50.634L153.444 52.6425L154.449 50.9035L162.27 55.4226L161.265 57.1616L165.175 59.4211L164.17 61.1601L167.646 63.1686L166.641 64.9076L167.944 65.6608L166.185 68.704L168.792 70.2104L161.506 82.8182L168.892 87.0862L167.385 89.6947L173.033 92.9584L172.279 94.2627L174.017 95.2669L173.012 97.0059L175.184 98.2612L173.174 101.739L174.912 102.743L172.651 106.656L175.692 108.414L172.929 113.196L168.15 110.434L166.642 113.043L165.339 112.29L158.807 123.593L163.586 126.355L162.079 128.963L164.251 130.219L163.246 131.958L164.984 132.962L163.476 135.57L165.649 136.826L164.644 138.565L166.816 139.82L164.053 144.602L167.094 146.36L163.074 153.316Z" fill="#E84077"/>
<path fill-rule="evenodd" clip-rule="evenodd" d="M49.2977 110.694L47.5771 113.672L50.9778 115.637L54.6929 109.208L52.1424 107.734L52.8904 106.44L51.1901 105.457L52.1873 103.731L50.062 102.503L51.8072 99.4832L50.1069 98.5006L51.3535 96.3434L49.2281 95.1153L50.4747 92.958L47.9242 91.4842L56.8996 75.9524L59.4501 77.4262L61.1953 74.4061L62.8956 75.3887L63.6435 74.0944L65.7689 75.3226L66.7662 73.5968L68.4665 74.5794L70.2117 71.5593L73.6123 73.5244L74.8589 71.3672L75.7091 71.8585L78.1899 67.5654L74.7893 65.6003L74.303 66.4418L73.4528 65.9506L72.2062 68.1078L68.8056 66.1426L67.0604 69.1627L65.3601 68.1802L64.3628 69.9059L62.2375 68.6777L61.4895 69.9721L59.7892 68.9895L58.044 72.0096L57.1728 71.5061L44.2083 93.941L45.0795 94.4445L43.8329 96.6017L45.9583 97.8299L44.7117 99.9871L46.412 100.97L44.6668 103.99L46.7922 105.218L45.7949 106.944L47.4952 107.926L46.7473 109.221L49.2977 110.694Z" fill="#801A43" fill-opacity="0.4"/>
<path fill-rule="evenodd" clip-rule="evenodd" d="M161.849 118.428L147.163 109.941L145.641 112.575L130.386 103.76L129.118 105.956L117.786 99.4072L116.771 101.163L107.618 95.8743L107.111 96.7524L97.5225 91.2115L96.2539 93.4067L87.973 88.6213L87.2119 89.9384L78.4951 84.9013L76.4654 88.4136L66.0052 82.3689L63.4682 86.7593L66.9549 88.7742L67.4623 87.8961L77.9225 93.9408L79.9521 90.4284L88.6689 95.4656L89.43 94.1485L97.711 98.9338L98.9795 96.7387L108.568 102.28L109.075 101.401L118.228 106.691L119.243 104.934L130.575 111.483L131.843 109.288L147.098 118.103L148.62 115.468L159.819 121.94L161.849 118.428Z" fill="#801A43" fill-opacity="0.4"/>
<path fill-rule="evenodd" clip-rule="evenodd" d="M136.491 160.856L122.289 152.648L123.811 150.014L108.587 141.217L109.856 139.022L98.5468 132.486L99.5616 130.73L90.4273 125.452L90.9347 124.574L81.3655 119.044L82.634 116.849L74.3697 112.073L75.1308 110.756L66.4315 105.729L68.4611 102.217L58.0219 96.184L60.559 91.7936L64.0387 93.8045L63.5313 94.6825L73.9705 100.715L71.9408 104.227L80.6402 109.254L79.8791 110.572L88.1434 115.347L86.8749 117.543L96.4441 123.072L95.9367 123.95L105.071 129.229L104.056 130.985L115.365 137.52L114.097 139.715L129.321 148.513L127.798 151.147L138.521 157.343L136.491 160.856Z" fill="#801A43" fill-opacity="0.4"/>
<path fill-rule="evenodd" clip-rule="evenodd" d="M140.461 49.3966L142.457 45.9433L138.989 43.9392L136.744 47.8242L133.276 45.8201L131.53 48.8417L128.495 47.0881L126.25 50.9731L124.083 49.7205L122.336 52.7421L118.001 50.237L116.006 53.6903L112.104 51.4357L110.109 54.889L106.207 52.6343L104.212 56.0876L102.044 54.8351L99.799 58.72L98.4984 57.9685L96.5029 61.4218L94.3353 60.1692L93.587 61.4642L92.2865 60.7126L91.0393 62.8709L89.7387 62.1194L87.4937 66.0044L85.7597 65.0023L84.0136 68.0239L80.979 66.2703L78.4846 70.5869L76.7505 69.5849L73.2583 75.6281L76.7264 77.6322L78.223 75.0423L79.9571 76.0443L82.4515 71.7277L85.4861 73.4813L87.2322 70.4597L88.9663 71.4617L91.2113 67.5768L92.5118 68.3283L93.759 66.17L95.0595 66.9216L95.8079 65.6266L97.9754 66.8792L99.971 63.4259L101.272 64.1774L103.517 60.2925L105.684 61.545L107.68 58.0917L111.581 60.3464L113.577 56.8931L117.478 59.1477L119.474 55.6944L123.809 58.1995L125.555 55.1779L127.723 56.4305L129.968 52.5455L133.002 54.2991L134.748 51.2775L138.216 53.2816L140.461 49.3966Z" fill="#801A43" fill-opacity="0.4"/>
<path fill-rule="evenodd" clip-rule="evenodd" d="M66.5579 178.739L64.5383 182.234L61.0702 180.229L63.3423 176.298L59.8742 174.294L61.6413 171.236L58.6068 169.482L60.8788 165.55L58.7113 164.298L60.4784 161.24L56.1433 158.734L58.1629 155.24L54.2613 152.985L56.2809 149.49L52.3793 147.235L54.3989 143.741L52.2314 142.488L54.5034 138.556L53.2029 137.805L55.2225 134.31L53.0549 133.057L53.8123 131.747L52.5118 130.995L53.774 128.811L52.4735 128.059L54.7455 124.128L53.0115 123.125L54.7786 120.067L51.7441 118.314L54.2686 113.945L52.5345 112.943L56.0688 106.827L59.5369 108.831L58.0222 111.452L59.7562 112.454L57.2317 116.823L60.2663 118.577L58.4992 121.635L60.2332 122.637L57.9612 126.568L59.2617 127.32L57.9994 129.504L59.3 130.256L58.5426 131.566L60.7102 132.819L58.6906 136.314L59.9911 137.065L57.719 140.997L59.8866 142.25L57.867 145.745L61.7686 147.999L59.749 151.494L63.6506 153.749L61.631 157.244L65.9661 159.749L64.1989 162.807L66.3665 164.059L64.0944 167.991L67.129 169.745L65.3619 172.803L68.8299 174.807L66.5579 178.739Z" fill="#801A43" fill-opacity="0.4"/>
<path fill-rule="evenodd" clip-rule="evenodd" d="M162.073 84.6302L163.849 81.5559L162.11 80.5509L162.364 80.1117L157.146 77.0967L155.624 79.7319L147.798 75.2094L146.275 77.8446L142.797 75.8346L141.528 78.0306L133.701 73.5081L131.671 77.0216L127.758 74.7604L126.743 76.5172L121.091 73.2509L119.314 76.3253L114.966 73.8128L113.951 75.5696L109.603 73.0571L108.081 75.6922L103.298 72.9285L101.775 75.5637L98.7318 73.8049L97.209 76.4401L94.1655 74.6813L92.3889 77.7557L88.4759 75.4944L87.4607 77.2512L85.2868 75.995L82.7489 80.3869L77.9663 77.6232L76.6973 79.8191L71.0451 76.5529L69.0148 80.0664L69.4495 80.3177L68.4344 82.0744L71.4778 83.8332L72.493 82.0764L78.1452 85.3426L79.4141 83.1467L84.1967 85.9104L86.7347 81.5185L88.9086 82.7747L89.9238 81.018L93.8368 83.2792L95.6134 80.2048L98.6569 81.9636L100.18 79.3284L103.223 81.0872L104.746 78.452L109.528 81.2157L111.051 78.5806L115.399 81.0931L116.414 79.3363L120.762 81.8488L122.539 78.7745L128.191 82.0407L129.206 80.2839L133.119 82.5451L135.149 79.0316L142.975 83.5541L144.244 81.3581L147.723 83.3681L149.245 80.7329L157.072 85.2554L158.594 82.6203L162.073 84.6302Z" fill="#801A43" fill-opacity="0.4"/>
<path fill-rule="evenodd" clip-rule="evenodd" d="M108.814 179.698L107.064 182.727L104.419 181.198L104.169 181.631L98.9255 178.601L100.426 176.005L92.56 171.46L94.0601 168.864L90.5643 166.844L91.8143 164.681L83.9488 160.135L85.9489 156.674L82.0162 154.402L83.0162 152.671L77.3356 149.389L79.0856 146.36L74.7159 143.835L75.7159 142.104L71.3462 139.579L72.8463 136.983L68.0396 134.206L69.5396 131.61L66.4808 129.842L67.9809 127.247L64.9221 125.479L66.6721 122.451L62.7394 120.178L63.7394 118.447L61.5545 117.185L64.0546 112.858L59.2479 110.081L60.498 107.918L54.8173 104.635L56.8174 101.174L57.2544 101.426L58.2544 99.6958L61.3132 101.463L60.3132 103.194L65.9938 106.477L64.7438 108.64L69.5505 111.417L67.0504 115.744L69.2352 117.006L68.2352 118.737L72.168 121.01L70.4179 124.038L73.4767 125.806L71.9766 128.401L75.0355 130.169L73.5354 132.765L78.3421 135.542L76.842 138.138L81.2118 140.663L80.2117 142.394L84.5815 144.919L82.8314 147.948L88.512 151.23L87.512 152.961L91.4447 155.233L89.4447 158.694L97.3102 163.24L96.0601 165.403L99.5559 167.423L98.0559 170.019L105.921 174.564L104.421 177.16L108.814 179.698Z" fill="#801A43" fill-opacity="0.4"/>
</svg>
