<svg width="313" height="302" viewBox="0 0 313 302" fill="none" xmlns="http://www.w3.org/2000/svg">
<path d="M278.443 195.207L292.294 193.507L281.511 105.655L267.661 107.355L278.443 195.207Z" fill="#E9BE9C"/>
<path d="M144.33 119.141L152.818 130.218L223.074 76.382L214.586 65.3053L144.33 119.141Z" fill="#E9BE9C"/>
<path d="M259.523 83.2733L241.769 75.1211L233.325 93.5097L251.08 101.662L259.523 83.2733Z" fill="#E9BE9C"/>
<path d="M281.788 105.013L210.77 72.4038L159.818 183.369L230.836 215.978L281.788 105.013Z" fill="#E9BE9C"/>
<path d="M304.459 35.574L248.025 9.66162L222.112 66.0956L278.546 92.008L304.459 35.574Z" fill="#E9BE9C"/>
<path d="M255.266 49.0717L246.389 44.9956L242.313 53.8729L251.19 57.949L255.266 49.0717Z" fill="black"/>
<path d="M280.629 60.7177L271.752 56.6416L267.676 65.5189L276.553 69.595L280.629 60.7177Z" fill="black"/>
<path d="M259.608 76.4017L246.292 70.2876L245.127 72.824L258.443 78.9381L259.608 76.4017Z" fill="#9F5B81"/>
<path d="M265.703 128.338L240.974 116.983L229.619 141.712L254.348 153.067L265.703 128.338Z" fill="#0EBC1C"/>
<path d="M265.483 140.522L194.465 107.913L192.427 112.352L263.445 144.961L265.483 140.522Z" fill="#0EBC1C"/>
<path d="M229.559 111.742L204.83 100.387L193.475 125.117L218.204 136.472L229.559 111.742Z" fill="#0EBC1C"/>
<path d="M225.354 164.931L218.885 180.104L196.402 170.52L202.87 155.347L172.248 142.293L165.78 157.466L156.401 153.467L143.817 182.985L138.3 180.633L123.601 215.117L120.703 213.882L114.496 211.236L101.148 242.547L86.6655 236.373L90.3705 227.684L70.0939 219.04L75.1507 207.177L83.8406 210.882L88.4275 200.123L100.014 205.062L102.307 199.683L111.549 203.622L118.134 188.174L97.3055 179.295L92.3075 191.019L71.4797 182.14L63.0125 202.003L51.5639 197.123L56.1503 186.364L34.0808 176.956L32.6695 180.266L26.1866 177.502L23.0114 184.951L14.5974 181.364L11.4221 188.813L4.9392 186.049L0 197.635L17.3798 205.044L20.4374 197.872L24.4375 199.577L46.507 208.985L41.8618 219.882L65.4486 229.937L60.8622 240.696L81.1386 249.339L73.3181 267.685L151.803 301.142L156.565 289.969L171.738 296.437L180.323 276.299L195.634 282.826L208.981 251.515L217.671 255.219L231.195 223.494L240.161 227.316L253.921 195.039L248.68 192.805L255.147 177.632L225.354 164.931Z" fill="#002711"/>
<path d="M237.566 86.3952L242.791 74.4224L232.272 69.8315L236.208 60.813L227.519 57.0205L237.562 34.0078L246.252 37.8002L250.12 28.9372L297.074 49.4298L283.162 81.3056L274.472 77.5131L270.536 86.5317L259.783 81.8385L254.49 93.9671L260.822 96.7301L256.954 105.593L274.485 113.245L278.354 104.382L282.622 106.245L312.685 37.3622L304.606 33.8358L308.542 24.8173L282.321 13.3734L278.385 22.3919L273.964 20.4624L277.9 11.4439L251.679 0L247.743 9.0185L239.511 5.4256L209.515 74.1529L217.138 77.4796L213.202 86.4981L230.733 94.1491L234.669 85.1311L237.566 86.3952Z" fill="#A90786"/>
</svg>
