<svg width="188" height="188" viewBox="0 0 188 188" fill="none" xmlns="http://www.w3.org/2000/svg">
<path d="M163.534 96.8537L137.368 178.547L109.244 169.539L112.676 158.825L104.64 156.251L106.356 150.894L95.6421 147.463L98.6447 138.088L90.6093 135.515L87.6067 144.889L40.7335 129.876L43.7362 120.501L34.3616 117.499L37.3642 108.124L29.3288 105.55L32.7604 94.8365L23.3858 91.8339L34.9674 55.6746L44.342 58.6773L50.7762 38.5888L58.8116 41.1625L61.8143 31.7879L71.1889 34.7905L73.7626 26.7551L93.8511 33.1893L96.8537 23.8147L131.674 34.9674L128.671 44.342L147.42 50.3473L144.847 58.3827L155.561 61.8143L151.7 73.8674L159.735 76.441L154.159 93.8511L163.534 96.8537Z" fill="#359CC9"/>
<path fill-rule="evenodd" clip-rule="evenodd" d="M92.3029 15.0069L140.495 30.4426L137.494 39.8133L156.235 45.816L153.662 53.8481L164.372 57.2782L160.513 69.3262L168.545 71.8989L162.971 89.3016L172.342 92.303L141.899 187.349L100.4 174.057L103.83 163.347L95.7984 160.775L97.5135 155.42L31.9186 134.41L34.92 125.04L25.5493 122.038L28.5507 112.668L20.5187 110.095L23.9488 99.3857L14.5781 96.3843L30.4426 46.8535L39.8132 49.8548L46.2448 29.7748L54.2768 32.3474L57.2782 22.9767L66.6489 25.9781L69.2215 17.9461L89.3015 24.3776L92.3029 15.0069ZM101.402 32.6813L98.4006 42.052L78.3205 35.6205L75.7479 43.6525L66.3772 40.6511L63.3758 50.0218L55.3438 47.4492L48.9123 67.5292L39.5416 64.5279L32.2525 87.2853L41.6232 90.2866L38.193 100.996L46.2251 103.569L43.2237 112.939L52.5944 115.941L49.593 125.311L83.0598 136.031L86.0611 126.66L107.48 133.52L104.478 142.891L115.188 146.321L113.473 151.676L121.505 154.248L118.075 164.958L132.8 169.674L154.667 101.402L145.297 98.4006L150.871 80.9979L142.839 78.4253L146.697 66.3772L135.988 62.9471L138.561 54.9151L119.819 48.9123L122.821 39.5416L101.402 32.6813Z" fill="#1E356C"/>
<path fill-rule="evenodd" clip-rule="evenodd" d="M83.799 59.5351L121.373 71.5699L116.284 87.4578L125.678 90.4665L113.38 128.862L102.645 125.424L111.55 97.6199L104.84 95.4708L97.2071 119.303L55.607 105.978L68.7531 64.9347L80.8305 68.803L83.799 59.5351ZM91.142 73.5655L88.1735 82.8334L76.0961 78.9651L69.7351 98.8249L89.8641 105.272L91.5604 99.9762L86.1926 98.2569L89.5852 87.665L103.005 91.9632L107.245 78.7233L91.142 73.5655Z" fill="#000846"/>
</svg>
