<svg width="225" height="225" viewBox="0 0 225 225" fill="none" xmlns="http://www.w3.org/2000/svg">
<path d="M76.0017 136.639L79.3698 161.83L65.7767 163.647L67.5903 177.212L52.0554 179.289L53.3508 188.978L39.7577 190.795L40.794 198.547L42.8667 214.049L83.6458 208.597L82.0914 196.97L103.452 194.114L101.379 178.612L113.03 177.054L124.682 175.496L138.275 173.679L140.347 189.181L169.475 185.287L171.289 198.851L175.173 198.332L206.242 194.178L202.874 168.987L189.281 170.804L187.986 161.115L172.451 163.192L170.637 149.628L157.044 151.445L153.676 126.254L165.328 124.696L164.55 118.883L187.853 115.767L186.298 104.14L203.775 101.804L201.961 88.2392L199.889 72.7369L143.575 80.266L142.279 70.577L132.57 71.8751L129.202 46.6838L121.434 47.7223L118.326 24.4688L100.849 26.8054L85.3138 28.8824L89.2 57.9493L77.5488 59.5071L81.435 88.574L23.179 96.3627L24.4744 106.052L26.8062 123.492L40.3992 121.674L42.2128 135.239L75.2245 130.825L76.0017 136.639Z" fill="#E88460"/>
<path fill-rule="evenodd" clip-rule="evenodd" d="M94.248 21.7872L78.7131 23.8642L82.6075 52.9921L70.9563 54.5499L74.8507 83.6779L16.5947 91.4666L17.8928 101.176L10.1254 102.214L11.6831 113.866L19.4506 112.827L21.7872 130.304L35.3803 128.487L37.1976 142.08L70.2093 137.666L72.8056 157.085L59.2125 158.902L61.0299 172.495L45.495 174.572L46.7931 184.281L33.2 186.099L37.8733 221.052L90.3037 214.043L88.7459 202.391L110.106 199.535L108.029 184.001L133.274 180.625L135.351 196.16L164.479 192.266L166.296 205.859L212.901 199.628L207.968 162.733L194.375 164.55L193.077 154.841L177.542 156.918L175.724 143.325L162.131 145.142L160.314 131.549L171.965 129.991L171.186 124.166L194.489 121.05L192.931 109.399L210.408 107.062L208.59 93.4691L210.532 93.2095L208.975 81.5583L207.033 81.818L204.956 66.283L148.642 73.8121L147.343 64.1028L137.634 65.4009L134.259 40.1567L126.492 41.1952L123.376 17.8928L105.899 20.2294L104.861 12.462L93.2095 14.0197L94.248 21.7872ZM124.166 53.3656L116.398 54.4041L113.283 31.1017L91.9221 33.9576L95.8164 63.0856L84.1652 64.6433L88.0596 93.7713L29.8036 101.56L31.8806 117.095L45.4737 115.278L47.2911 128.871L80.3028 124.457L86.0145 167.178L72.4215 168.995L74.2388 182.589L58.7039 184.666L60.002 194.375L46.409 196.192L47.9667 207.843L77.0947 203.949L75.537 192.298L96.8975 189.442L94.8205 173.907L118.123 170.792L117.344 164.966L128.995 163.408L129.774 169.234L143.367 167.416L145.444 182.951L174.572 179.057L176.389 192.65L199.692 189.535L197.874 175.942L184.281 177.759L182.983 168.05L167.448 170.127L165.631 156.533L152.038 158.351L147.105 121.455L158.756 119.898L157.977 114.072L181.28 110.957L179.722 99.3054L197.199 96.9688L194.862 79.492L138.548 87.0211L137.25 77.3118L127.541 78.6099L124.166 53.3656Z" fill="#6D0B00"/>
<path fill-rule="evenodd" clip-rule="evenodd" d="M76.2207 124.567L47.4732 128.41L45.9091 116.711L86.1556 111.33L95.019 177.624L83.5201 179.162L84.8235 188.911L67.575 191.217L69.3998 204.866L48.3183 207.684L46.7542 195.985L56.3367 194.704L54.5119 181.055L71.7604 178.749L70.4569 169L81.9559 167.463L76.2207 124.567Z" fill="#AF2819"/>
<path fill-rule="evenodd" clip-rule="evenodd" d="M101.077 33.2559L112.798 31.6888L115.907 54.9423L123.721 53.8976L127.089 79.0889L136.857 77.783L138.152 87.4719L194.805 79.8976L196.359 91.5244L127.986 100.666L126.69 90.9768L116.923 92.2828L113.555 67.0914L105.741 68.1362L101.077 33.2559Z" fill="#AF2819"/>
</svg>
