<svg width="230" height="230" viewBox="0 0 230 230" fill="none" xmlns="http://www.w3.org/2000/svg">
<path d="M72.8623 127.449L68.7889 152.536L55.2522 150.338L53.0588 163.847L37.5883 161.335L36.0216 170.984L22.4849 168.786L21.2315 176.505L18.7249 191.943L59.335 198.537L61.2151 186.958L82.4871 190.412L84.9937 174.974L96.5967 176.858L108.2 178.742L121.736 180.94L119.23 196.378L148.237 201.088L146.044 214.596L149.911 215.224L180.852 220.248L184.926 195.161L171.389 192.963L172.956 183.314L157.485 180.802L159.678 167.294L146.142 165.096L150.215 140.009L161.818 141.893L162.758 136.104L185.964 139.872L187.844 128.293L205.248 131.119L207.441 117.611L209.948 102.173L153.867 93.0668L155.434 83.418L145.765 81.8481L149.838 56.7611L142.103 55.5051L145.863 32.348L128.459 29.522L112.988 27.0101L108.288 55.9565L96.6853 54.0726L91.9852 83.019L33.9707 73.5992L32.404 83.2481L29.584 100.616L43.1207 102.814L40.9274 116.322L73.8023 121.66L72.8623 127.449Z" fill="#E86074"/>
<path fill-rule="evenodd" clip-rule="evenodd" d="M123.595 22.807L108.124 20.295L103.414 49.3023L91.8113 47.4183L87.1014 76.4256L29.0868 67.0058L27.5169 76.6749L19.7816 75.4189L17.8976 87.0218L25.6329 88.2778L22.807 105.682L36.3437 107.88L34.1457 121.417L67.0207 126.755L63.8807 146.093L50.344 143.895L48.146 157.432L32.6755 154.92L31.1055 164.589L17.5688 162.391L11.9169 197.2L64.13 205.677L66.014 194.075L87.286 197.529L89.7979 182.058L114.938 186.14L112.426 201.61L141.433 206.32L139.235 219.857L185.647 227.393L191.612 190.65L178.076 188.452L179.646 178.783L164.175 176.271L166.373 162.735L152.836 160.537L155.034 147L166.637 148.884L167.579 143.082L190.785 146.85L192.669 135.247L210.073 138.073L212.271 124.537L214.205 124.851L216.089 113.248L214.155 112.934L216.667 97.4632L160.587 88.3574L162.156 78.6883L152.487 77.1183L156.569 51.9787L148.834 50.7227L152.602 27.5169L135.198 24.6909L136.454 16.9557L124.851 15.0717L123.595 22.807ZM143.082 61.6976L135.347 60.4416L139.115 37.2358L117.843 33.7819L113.133 62.7892L101.53 60.9052L96.8203 89.9125L38.8058 80.4927L36.2938 95.9632L49.8306 98.1612L47.6326 111.698L80.5075 117.036L73.5997 159.58L60.0629 157.382L57.865 170.919L42.3944 168.407L40.8245 178.076L27.2877 175.878L25.4038 187.481L54.4111 192.191L56.295 180.588L77.567 184.042L80.079 168.571L103.285 172.339L104.227 166.538L115.83 168.421L114.888 174.223L128.424 176.421L125.912 191.891L154.92 196.601L152.722 210.138L175.928 213.906L178.126 200.369L164.589 198.171L166.159 188.502L150.688 185.99L152.886 172.454L139.35 170.256L145.315 133.513L156.918 135.397L157.86 129.596L181.066 133.363L182.95 121.761L200.354 124.587L203.18 107.182L147.1 98.0763L148.67 88.4072L139.001 86.8373L143.082 61.6976Z" fill="#45060E"/>
<path fill-rule="evenodd" clip-rule="evenodd" d="M76.5688 115.958L47.9404 111.31L49.8321 99.6593L89.9118 106.167L79.1923 172.187L67.7409 170.327L66.1645 180.036L48.9875 177.247L46.7805 190.839L25.7864 187.43L27.678 175.78L37.2208 177.329L39.4278 163.737L56.6048 166.526L58.1812 156.817L69.6326 158.677L76.5688 115.958Z" fill="#BC3845"/>
<path fill-rule="evenodd" clip-rule="evenodd" d="M126.809 35.762L138.482 37.6573L134.722 60.8145L142.503 62.078L138.43 87.1649L148.157 88.7443L146.59 98.3931L203.008 107.554L201.128 119.132L133.038 108.076L134.604 98.4276L124.877 96.8482L128.951 71.7613L121.169 70.4978L126.809 35.762Z" fill="#BC3845"/>
</svg>
