<svg width="348" height="346" viewBox="0 0 348 346" fill="none" xmlns="http://www.w3.org/2000/svg">
<g opacity="0.25">
<path d="M196.641 341.011V332.704H220.413V324.774H245.695V316.09H270.223V307.782H295.128V300.608H319.278V293.434H342.673V174.868H335.504V185.818H319.278V193.748H310.976H295.128V202.81H270.223V210.362H245.695V218.669H220.413V226.599H196.641V234.906H184.943V341.011H196.641Z" fill="#975A3A"/>
<path d="M58.532 183.175V300.608H74.7579V313.069H98.5307V319.11H123.058V324.774H146.831V336.102H173.245V341.011H184.943V234.906H173.245V226.599H149.095V218.669H123.058V210.362H100.795V200.544H72.8712V193.748H64.1922V187.706V183.175H62.3055H58.532Z" fill="#975A3A"/>
<path d="M50.9851 56.6794V60.4554H41.5515V71.7833H33.6272V78.2025H25.703V88.7753H17.7787V106.145H5.32632V143.905H14.0053V155.988H25.703V168.826H33.6272V174.868H41.5515V183.175H58.532H62.3055V126.913H54.0039V56.6794H50.9851Z" fill="#975A3A"/>
<path d="M196.641 5.32599V14.766H173.245V23.0731H146.831V31.7579H123.058V41.5755H98.5307V47.2394H74.7579V56.6794H54.0039V126.913H62.3055V183.175H64.1922H88.7197V179.021H113.247V168.826H139.661V160.897H165.321V150.701H186.83V143.905H205.697V135.598V126.913H196.641V120.116H189.848V111.431H182.301V106.145H175.887V92.1737H167.208V60.4554H175.887V41.5755H184.565V35.1563H193.244V26.8491H199.282H201.923V19.2971H205.697V14.766H212.112V8.34678L215.13 5.32599H196.641Z" fill="#B38D7A"/>
<path d="M335.504 174.868V168.826H310.976V159.009H285.694V150.701H263.053V143.905H237.771V135.598H225.319V155.988V157.498H245.318V165.805H269.846V172.98H295.128V181.665H310.976V193.748H319.278V185.818H335.504V174.868Z" fill="#886C5E"/>
<path d="M225.319 155.988V135.598H205.697V143.905H186.83V150.701H165.321V160.897H139.661V168.826H113.247V179.021H88.7197V183.175H64.1922V187.706V193.748H72.8712V200.544H100.795H107.21V196.768H114.757V189.216H139.661V181.665H164.189V173.735H180.792V165.805H205.697V157.498H225.319V155.988Z" fill="#886C5E"/>
<path d="M225.319 135.598V75.1817H215.508V5.32599H215.13L212.112 8.34678V14.766H205.697V19.2971H201.923V26.8491H199.282H193.244V35.1563H184.565V41.5755H175.887V60.4554H167.208V92.1737H175.887V106.145H182.301V111.431H189.848V120.116H196.641V126.913H205.697V135.598H225.319Z" fill="#B38D7A"/>
<path d="M295.128 202.81V193.748H310.976V181.665H295.128V172.98H269.846V165.805H245.318V157.498H225.319H205.697V165.805H180.792V173.735H164.189V181.665H139.661V189.216H114.757V196.768H107.21V200.544H100.795V210.362H123.058V218.669H149.095V226.599H173.245V234.906H184.943H196.641V226.599H220.413V218.669H245.695V210.362H270.223V202.81H295.128Z" fill="#FDFF9B"/>
<path fill-rule="evenodd" clip-rule="evenodd" d="M194.384 3H217.788V72.8125H227.603V133.191H240.06V141.493H265.351V148.286H288V156.588H313.291V166.399H337.828V172.437H345V295.458H321.596V302.628H297.437V309.798H272.523V318.1H247.987V326.779H222.695V334.704H198.914V343.006H170.98V338.1H144.556V326.779H120.775V321.119H96.2384V315.081H72.457V302.628H56.2252V185.267H39.2384V176.965H31.3113V170.927H23.3841V158.097H11.6821V146.021H3V103.756H15.457V86.3977H23.3841V75.8314H31.3113V69.4162H39.2384V58.0953H48.6755V54.3216H72.457V44.8875H96.2384V39.227H120.775V29.4155H144.556V20.7362H170.98V12.4341H194.384V3ZM51.6954 62.6237H43.7682V73.9446H35.8411V80.3598H27.9139V90.926H19.9868V108.285H7.5298V141.493H16.2119V153.569H27.9139V166.399H35.8411V172.437H43.7682V180.739H60V129.04H51.6954V62.6237ZM60.755 185.267H61.8874V195.833H70.5695V202.626H98.5033V212.438H120.775V220.74H146.821V228.664H170.98V236.966H182.682V338.477H175.51V333.572H149.086V322.251H125.305V316.59H100.768V310.552H76.9868V298.099H60.755V185.267ZM187.212 338.477H194.384V330.175H218.166V322.251H243.457V313.571H267.993V305.269H292.907V298.099H317.066V290.929H340.47V176.965H337.828V187.909H321.596V195.833H297.437V204.89H272.523V212.438H247.987V220.74H222.695V228.664H198.914V236.966H187.212V338.477ZM103.033 202.626V207.909H125.305V216.211H151.351V224.136H175.51V232.438H194.384V224.136H218.166V216.211H243.457V207.909H267.993V200.362H292.907V191.305H308.762V183.758H292.907V175.078H267.616V167.908H243.079V159.606H207.974V167.908H183.06V175.833H166.45V183.758H141.914V191.305H117V198.852H109.45V202.626H103.033ZM104.921 198.098V194.324H112.47V186.777H137.384V179.229H161.921V171.305H178.53V163.38H203.444V155.078H223.073V137.719H207.974V146.021H189.099V152.814H167.583V163.003H141.914V170.927H115.49V181.116H90.9536V185.267H66.4172V191.305H75.0993V198.098H104.921ZM86.4238 180.739H64.5298V124.512H56.2252V58.85H76.9868V49.4159H100.768V43.7554H125.305V33.9439H149.086V25.2645H175.51V16.9625H198.914V7.52838H209.861V12.4341H203.444V16.9625H199.669V24.5098H190.987V32.8118H182.305V39.227H173.623V58.0953H164.94V94.3223H173.623V108.285H180.04V113.568H187.589V122.247H194.384V129.04H203.444V141.493H184.57V148.286H163.053V158.474H137.384V166.399H110.96V176.588H86.4238V180.739ZM204.199 21.4909V29.0382H195.517V37.3402H186.834V43.7554H178.152V62.6237H169.47V89.7939H178.152V103.756H184.57V109.04H192.119V117.719H198.914V124.512H207.974V133.191H223.073V77.3409H213.258V16.9625H207.974V21.4909H204.199ZM227.603 137.719V155.078H247.609V163.38H272.146V170.55H297.437V179.229H313.291V191.305H317.066V183.38H333.298V170.927H308.762V161.116H283.47V152.814H260.821V146.021H235.53V137.719H227.603Z" fill="black"/>
<path d="M180.481 218.038V232.662H194.714V224.195H204.078V218.038H202.58H180.481Z" fill="#FA8745"/>
<path d="M212.72 216.376V208.732H243.297V216.376H212.72Z" fill="#DB3A36"/>
<path d="M172.836 191.782L180.481 191.782L180.481 208.4L172.836 208.4L172.836 191.782Z" fill="#DB3A36"/>
<path d="M237.647 208.067V200.09H261.245V208.067H237.647Z" fill="#FA8745"/>
<path d="M228.009 197.432V193.263V190.231H235.589V175.828H243.169V193.263H249.612V197.432H228.009Z" fill="#FEC200" fill-opacity="0.996078"/>
<path d="M261.245 198.761V191.636H269.471V184.137H276.201V198.761H261.245Z" fill="#DB3A36"/>
<path d="M294.481 184.469H280.19V190.452H294.481V184.469Z" fill="#FEC200"/>
<path d="M263.239 184.137V177.32V176.183H255.642V167.851H239.309V172.775H241.208H251.464V176.562V184.137H263.239Z" fill="#3D85DC"/>
<path d="M180.417 214.978L183.815 214.978L188.211 214.978L188.013 207.431L196.315 207.213L195.889 190.987L190.983 191.116L191.033 193.003L191.3 203.191L187.527 203.29L180.417 203.439L180.417 209.479L180.417 214.978Z" fill="#3D85DC"/>
<path d="M173.231 224.352V214.517H163.782V215.652V217.165V224.352H173.231Z" fill="#3D85DC"/>
<path d="M163.782 183.876V191.82H179.278V183.876H163.782Z" fill="#FEC200"/>
<path d="M130.521 191.442V199.008H139.214H146.774V191.442H130.521Z" fill="#FA8745"/>
<path d="M196.286 169.502H183.436V175.554H196.286V169.502Z" fill="#3D85DC"/>
<path d="M220.098 175.932V182.742H228.791V175.932H220.098Z" fill="#FA8745"/>
<path d="M204.602 175.932V182.742H220.098V175.932H204.602Z" fill="#DB3A36"/>
<path d="M220.098 166.854V175.932H228.791H233.327V175.176V166.854H220.098Z" fill="#3D85DC"/>
<path fill-rule="evenodd" clip-rule="evenodd" d="M109.356 199.008H130.521H139.214V208.086H130.521H109.356V199.008Z" fill="#DB3A36"/>
<path d="M130.521 208.086V216.408H142.994V208.086H139.214H130.521Z" fill="#3D85DC"/>
<path fill-rule="evenodd" clip-rule="evenodd" d="M323.114 188.79H339.35V291.111H334.819V193.321H327.645V201.627H303.103V210.689H278.561V254.865H255.907V218.807H253.264V226.547H228.722V234.098H204.558V243.16H193.986V338.685H189.455V238.629H200.027V229.567H224.191V222.016H248.733V214.276H274.03V206.158H298.572V197.096H323.114V188.79ZM274.03 218.807H260.438V250.334H274.03V218.807Z" fill="#FEC200"/>
<path fill-rule="evenodd" clip-rule="evenodd" d="M62.4927 204.079H97.244V213.532H119.53V222.228H145.594V229.79H169.768V238.865H181.478V338.685H176.945V243.402H165.236V234.327H141.061V226.765H114.997V218.069H92.7112V208.616H67.0255V298.228H62.4927V204.079Z" fill="#FEC200"/>
<path fill-rule="evenodd" clip-rule="evenodd" d="M49.7682 131.293V62.4933H45.2101V135.829H53.9464V180.814H58.5045V131.293H49.7682Z" fill="#FEC200"/>
</g>
<path d="M215.5 4H195.5V15H172.5V23.5H146V33H122.5V43H98.5V48.5H75V58H53.5V127H62.5V183H64H89V178.5H113V168.5H140V160H165V151H186.5V144H205.5V135V126.5H196.5V119.5H190V111H182.5V105.5H175V92H168V60.5H176V40.5H184.5V34.5H193.5V26.5H202H204V20.5H207V14V10H215.5V4Z" fill="#B38D7A"/>
<path d="M224.5 74.5H215.5V10H207V14V20.5H204V26.5H202H193.5V34.5H184.5V40.5H176V60.5H168V92H175V105.5H182.5V111H190V119.5H196.5V126.5H205.5V135H224.5V134.5V74.5Z" fill="#B38D7A"/>
<path d="M64 183V194H73.5V200.5H101H108V196H115V188.5H140V181H164.5V172.5H181V166H205.5V158H224.5V135H205.5V144H186.5V151H165V160H140V168.5H113V178.5H89V183H64Z" fill="#886C5E"/>
<path d="M344 294.5V176.5H335.5V187H320V194H311H295V204H270.5V211H245.5V219H220.5V226.5H196.5V235.5H185V342H196.5V331.5H221V325H246V315.5H270.5V307.5H295V299H319V294.5H344Z" fill="#975A3A"/>
<path d="M51.5 58V60.5H41.5V73H33V78.5H25V90H18V106.5H4.5V143.5H14.5V156.5H26V169H33.5V175.5H42V183H57H62.5V127H53.5V58H51.5Z" fill="#975A3A"/>
<path d="M62.5 183H57V300H74.5V312.5H99.5V319.5H123.5V324.5H147V336H172.5V342H185V235.5H173.5V226H149.5V217.5H124V209.5H101V200.5H73.5V194H64V183H62.5Z" fill="#975A3A"/>
<path d="M108 200.5H101V209.5H124V217.5H149.5V226H173.5V235.5H185H196.5V226.5H220.5V219H245.5V211H270.5V204H295V194H311V182H295V173.5H270.5V165.5H245.5V158H224.5H205.5V166H181V172.5H164.5V181H140V188.5H115V196H108V200.5Z" fill="#FDFF9B"/>
<path d="M335.5 187V176.5V167.5H311V158.5H285V148.5H262V142H237V134.5H224.5V135V158H245.5V165.5H270.5V173.5H295V182H311V194H320V187H335.5Z" fill="#886C5E"/>
<path d="M335.5 176.5H344V294.5H319V299H295V307.5H270.5V315.5H246V325H221V331.5H196.5V342H185M335.5 176.5V187M335.5 176.5V167.5M335.5 187V167.5M335.5 187H320V194H311M335.5 167.5H311V158.5H285V148.5H262V142H237V134.5H224.5M224.5 134.5V135M224.5 134.5V74.5M224.5 158H205.5V166H181V172.5H164.5V181H140V188.5H115V196H108V200.5H101M224.5 158H245.5V165.5H270.5V173.5H295V182H311V194M224.5 158V135M224.5 74.5H215.5V10M224.5 74.5V135M18 90H25V78.5H33V73H41.5V60.5H51.5V58H53.5M18 90C18 95.5 18 106.5 18 106.5M18 90V106.5M18 106.5H4.5V143.5H14.5V156.5H26V169H33.5V175.5H42V183H57M62.5 183V127H53.5V58M62.5 183H57M62.5 183H64M53.5 58H75V48.5H98.5V43H122.5V33H146V23.5H172.5V15H195.5V4H215.5V10M57 183V300H74.5V312.5H99.5V319.5H123.5V324.5H147V336H172.5V342H185M64 183V194H73.5V200.5H101M64 183H89V178.5H113V168.5H140V160H165V151H186.5V144H205.5V135M101 200.5V209.5H124V217.5H149.5V226H173.5V235.5H185M311 194H295V204H270.5V211H245.5V219H220.5V226.5H196.5V235.5H185M185 235.5V342M205.5 135H224.5M205.5 135V126.5H196.5V119.5H190V111H182.5V105.5H175V92H168M168 92C168 81.5 168 60.5 168 60.5M168 92V60.5M168 60.5H176V40.5H184.5V34.5H193.5V26.5H202H204V20.5H207V14V10H215.5" stroke="black" stroke-width="8"/>
<path d="M66 294.5L66.4802 209.5H92L92.0198 219H115V225.5H141V235H165V244H176.5V332" stroke="#FEC200" stroke-width="8"/>
<path d="M194 327.5V244.5H202.5H206V235H229V228H254V220H258M258 220V254H279V220M258 220H279M279 220V212.5H303.5V202.5H328.5V196H335V290.5" stroke="#FEC200" stroke-width="8"/>
<path d="M54 179V135.5H45C45 116.833 45 77 45 77" stroke="#FEC200" stroke-width="8"/>
<path d="M175.567 219.711V210.816H166.649V211.842V213.211V219.711H175.567Z" fill="#3D85DC"/>
<path d="M175.366 181.395V188.579H189.991V181.395H175.366Z" fill="#FEC200"/>
<path d="M146.162 188.921V195.763H154.366H161.5V188.921H146.162Z" fill="#FA8745"/>
<path d="M204.081 172.158H191.953V177.632H204.081V172.158Z" fill="#3D85DC"/>
<path d="M225.015 172.711V178.868H233.22V172.711H225.015Z" fill="#FA8745"/>
<path d="M210.39 172.711V178.868H225.015V172.711H210.39Z" fill="#DB3A36"/>
<path d="M225.015 164.5V172.711H233.22H237.5V172.026V164.5H225.015Z" fill="#3D85DC"/>
<path fill-rule="evenodd" clip-rule="evenodd" d="M126.186 195.763H146.162H154.366V203.974H146.162H126.186V195.763Z" fill="#DB3A36"/>
<path d="M146.162 203.974V211.5H157.933V203.974H154.366H146.162Z" fill="#3D85DC"/>
<path d="M179 203.644V196H209.577V203.644H179Z" fill="#DB3A36"/>
<path d="M188 221.977V214H211.598V221.977H188Z" fill="#FA8745"/>
<path d="M219 205.603V201.434V198.402H226.58V184H234.16V201.434H240.603V205.603H219Z" fill="#FEC200" fill-opacity="0.996078"/>
<path d="M273 196.624V189.499H281.226V182H287.956V196.624H273Z" fill="#DB3A36"/>
<path d="M262.292 190H248V195.983H262.292V190Z" fill="#FEC200"/>
<path d="M268.93 187.286V180.468V179.332H261.333V171H245V175.924H246.899H257.155V179.711V187.286H268.93Z" fill="#3D85DC"/>
</svg>
