<svg width="810" height="800" viewBox="0 0 810 800" fill="none" xmlns="http://www.w3.org/2000/svg">
<g filter="url(#filter0_i_293_92)">
<path d="M33.7757 353.964V777H786V353.964H715.544H98.0152H33.7757Z" fill="#975A3A"/>
<path d="M98.0152 292.997V353.964H715.544V292.997H737.095V230.371H756.989V143.275H786V59.4972H737.095V23H67.346V59.4972H23V143.275H52.0114V230.371H67.346V292.997H98.0152Z" fill="#886C5E"/>
</g>
<g filter="url(#filter1_i_293_92)">
<path fill-rule="evenodd" clip-rule="evenodd" d="M44.3779 0H761.06V36.4767H810V166.632H780.968V253.679H761.06V316.269H739.493V330.777H810V800H10.7834V330.777H75.0691V316.269H44.3779V253.679H29.0323V166.632H0V36.4767H44.3779V0ZM46.4516 82.9016H90.8295V46.4249H714.608V82.9016H763.548V120.207H734.516V207.254H714.608V269.845H693.042V330.777H121.521V269.845H90.8295V207.254H75.4839V120.207H46.4516V82.9016ZM57.235 377.202V753.575H763.548V377.202H57.235Z" fill="#975A3A"/>
<path fill-rule="evenodd" clip-rule="evenodd" d="M693.042 330.777H121.521V269.845H160V236H250V280.5H339.5V253.679H390V269.845H481V229H528V253.679H596V219H649.5V265.5H693.042V269.845V330.777ZM612 265.5V236V229H637.5V265.5H612ZM385 316.269H411.5V300H439.5V280.5H380V308.5V316.269H385ZM189.5 308.5V280.5V269.845H207V308.5H189.5Z" fill="#FFE100"/>
<path d="M385 316.269H411.5V300H439.5V280.5H380V308.5V316.269H385Z" fill="#43CD3C"/>
<path d="M189.5 280.5V308.5H207V269.845H189.5V280.5Z" fill="#EC1B1F"/>
<path d="M612 236V265.5H637.5V229H612V236Z" fill="#18C6E1"/>
</g>
<path d="M341.345 400V505.049H475.751V400H341.345Z" fill="#FFB200"/>
<path fill-rule="evenodd" clip-rule="evenodd" d="M57 377H763V753.337L57 756V377ZM103.431 423.431V709.393L716.569 707.081V423.431H498.924V528.316H318.174V423.431H103.431ZM364.605 423.431V481.885H452.493V423.431H364.605Z" fill="#FFB200"/>
<defs>
<filter id="filter0_i_293_92" x="23" y="23" width="763" height="754" filterUnits="userSpaceOnUse" color-interpolation-filters="sRGB">
<feFlood flood-opacity="0" result="BackgroundImageFix"/>
<feBlend mode="normal" in="SourceGraphic" in2="BackgroundImageFix" result="shape"/>
<feColorMatrix in="SourceAlpha" type="matrix" values="0 0 0 0 0 0 0 0 0 0 0 0 0 0 0 0 0 0 127 0" result="hardAlpha"/>
<feOffset dx="135" dy="118"/>
<feComposite in2="hardAlpha" operator="arithmetic" k2="-1" k3="1"/>
<feColorMatrix type="matrix" values="0 0 0 0 0 0 0 0 0 0 0 0 0 0 0 0 0 0 0.25 0"/>
<feBlend mode="normal" in2="shape" result="effect1_innerShadow_293_92"/>
</filter>
<filter id="filter1_i_293_92" x="0" y="0" width="810" height="800" filterUnits="userSpaceOnUse" color-interpolation-filters="sRGB">
<feFlood flood-opacity="0" result="BackgroundImageFix"/>
<feBlend mode="normal" in="SourceGraphic" in2="BackgroundImageFix" result="shape"/>
<feColorMatrix in="SourceAlpha" type="matrix" values="0 0 0 0 0 0 0 0 0 0 0 0 0 0 0 0 0 0 127 0" result="hardAlpha"/>
<feOffset dx="135" dy="118"/>
<feComposite in2="hardAlpha" operator="arithmetic" k2="-1" k3="1"/>
<feColorMatrix type="matrix" values="0 0 0 0 0 0 0 0 0 0 0 0 0 0 0 0 0 0 0.25 0"/>
<feBlend mode="normal" in2="shape" result="effect1_innerShadow_293_92"/>
</filter>
</defs>
</svg>
