<svg width="810" height="800" viewBox="0 0 810 800" fill="none" xmlns="http://www.w3.org/2000/svg">
<g filter="url(#filter0_i_271_886)">
<path d="M33.7757 353.964V777H786V353.964H715.544H98.0152H33.7757Z" fill="#975A3A"/>
<path d="M98.0152 292.997V353.964H715.544V292.997H737.095V230.371H756.989V143.275H786V59.4973H737.095V23H67.346V59.4973H23V143.275H52.0114V230.371H67.346V292.997H98.0152Z" fill="#886C5E"/>
</g>
<g filter="url(#filter1_i_271_886)">
<path fill-rule="evenodd" clip-rule="evenodd" d="M44.3779 0H761.06V36.4767H810V166.632H780.968V253.679H761.06V316.269H739.493V330.777H810V800H10.7834V330.777H75.0691V316.269H44.3779V253.679H29.0323V166.632H0V36.4767H44.3779V0ZM46.4516 82.9016H90.8295V46.4249H714.608V82.9016H763.548V120.207H734.516V207.254H714.608V269.845H693.041V330.777H121.521V269.845H90.8295V207.254H75.4839V120.207H46.4516V82.9016ZM57.235 377.202V753.575H763.548V377.202H57.235Z" fill="#975A3A"/>
</g>
<path d="M341.345 400V505.049H475.751V400H341.345Z" fill="#FFB200"/>
<path fill-rule="evenodd" clip-rule="evenodd" d="M57 377H763V753.337L57 756V377ZM103.431 423.431V709.393L716.569 707.081V423.431H498.924V528.316H318.174V423.431H103.431ZM364.605 423.431V481.885H452.493V423.431H364.605Z" fill="#FFB200"/>
<defs>
<filter id="filter0_i_271_886" x="23" y="23" width="763" height="754" filterUnits="userSpaceOnUse" color-interpolation-filters="sRGB">
<feFlood flood-opacity="0" result="BackgroundImageFix"/>
<feBlend mode="normal" in="SourceGraphic" in2="BackgroundImageFix" result="shape"/>
<feColorMatrix in="SourceAlpha" type="matrix" values="0 0 0 0 0 0 0 0 0 0 0 0 0 0 0 0 0 0 127 0" result="hardAlpha"/>
<feOffset dx="135" dy="118"/>
<feComposite in2="hardAlpha" operator="arithmetic" k2="-1" k3="1"/>
<feColorMatrix type="matrix" values="0 0 0 0 0 0 0 0 0 0 0 0 0 0 0 0 0 0 0.25 0"/>
<feBlend mode="normal" in2="shape" result="effect1_innerShadow_271_886"/>
</filter>
<filter id="filter1_i_271_886" x="0" y="0" width="810" height="800" filterUnits="userSpaceOnUse" color-interpolation-filters="sRGB">
<feFlood flood-opacity="0" result="BackgroundImageFix"/>
<feBlend mode="normal" in="SourceGraphic" in2="BackgroundImageFix" result="shape"/>
<feColorMatrix in="SourceAlpha" type="matrix" values="0 0 0 0 0 0 0 0 0 0 0 0 0 0 0 0 0 0 127 0" result="hardAlpha"/>
<feOffset dx="135" dy="118"/>
<feComposite in2="hardAlpha" operator="arithmetic" k2="-1" k3="1"/>
<feColorMatrix type="matrix" values="0 0 0 0 0 0 0 0 0 0 0 0 0 0 0 0 0 0 0.25 0"/>
<feBlend mode="normal" in2="shape" result="effect1_innerShadow_271_886"/>
</filter>
</defs>
</svg>
