<svg width="348" height="346" viewBox="0 0 348 346" fill="none" xmlns="http://www.w3.org/2000/svg">
<g opacity="0.25">
<path d="M151.36 341.011V332.704H127.587V324.774H102.305V316.09H77.7771V307.782H52.8723V300.608H28.7222V293.434H5.32677V174.868H12.4963V185.818H28.7222V193.748H37.0238H52.8723V202.81H77.7771V210.362H102.305V218.669H127.587V226.599H151.36V234.906H163.057V341.011H151.36Z" fill="#975A3A"/>
<path d="M289.468 183.175V300.608H273.242V313.069H249.469V319.11H224.942V324.774H201.169V336.102H174.755V341.011H163.057V234.906H174.755V226.599H198.905V218.669H224.942V210.362H247.205V200.544H275.129V193.748H283.808V187.706V183.175H285.695H289.468Z" fill="#975A3A"/>
<path d="M297.015 56.6794V60.4554H306.449V71.7833H314.373V78.2025H322.297V88.7753H330.221V106.145H342.674V143.905H333.995V155.988H322.297V168.826H314.373V174.868H306.449V183.175H289.468H285.695V126.913H293.996V56.6794H297.015Z" fill="#975A3A"/>
<path d="M151.36 5.32599V14.766H174.755V23.0731H201.169V31.7579H224.942V41.5755H249.469V47.2394H273.242V56.6794H293.996V126.913H285.695V183.175H283.808H259.28V179.021H234.753V168.826H208.339V160.897H182.679V150.701H161.17V143.905H142.303V135.598V126.913H151.36V120.116H158.152V111.431H165.699V106.145H172.114V92.1737H180.792V60.4554H172.114V41.5755H163.435V35.1563H154.756V26.8491H148.718H146.077V19.2971H142.303V14.766H135.888V8.34678L132.87 5.32599H151.36Z" fill="#B38D7A"/>
<path d="M12.4963 174.868V168.826H37.0238V159.009H62.306V150.701H84.9467V143.905H110.229V135.598H122.681V155.988V157.498H102.682V165.805H78.1545V172.98H52.8723V181.665H37.0238V193.748H28.7222V185.818H12.4963V174.868Z" fill="#886C5E"/>
<path d="M122.681 155.988V135.598H142.303V143.905H161.17V150.701H182.679V160.897H208.339V168.826H234.753V179.021H259.28V183.175H283.808V187.706V193.748H275.129V200.544H247.205H240.79V196.768H233.243V189.216H208.339V181.665H183.811V173.735H167.208V165.805H142.303V157.498H122.681V155.988Z" fill="#886C5E"/>
<path d="M122.681 135.598V75.1817H132.492V5.32599H132.87L135.888 8.34678V14.766H142.303V19.2971H146.077V26.8491H148.718H154.756V35.1563H163.435V41.5755H172.114V60.4554H180.792V92.1737H172.114V106.145H165.699V111.431H158.152V120.116H151.36V126.913H142.303V135.598H122.681Z" fill="#B38D7A"/>
<path d="M52.8723 202.81V193.748H37.0238V181.665H52.8723V172.98H78.1545V165.805H102.682V157.498H122.681H142.303V165.805H167.208V173.735H183.811V181.665H208.339V189.216H233.243V196.768H240.79V200.544H247.205V210.362H224.942V218.669H198.905V226.599H174.755V234.906H163.057H151.36V226.599H127.587V218.669H102.305V210.362H77.7771V202.81H52.8723Z" fill="#FDFF9B"/>
<path fill-rule="evenodd" clip-rule="evenodd" d="M153.616 3H130.212V72.8125H120.397V133.191H107.94V141.493H82.649V148.286H60V156.588H34.7086V166.399H10.1722V172.437H2.99999V295.458H26.404V302.628H50.5629V309.798H75.4768V318.1H100.013V326.779H125.305V334.704H149.086V343.006H177.02V338.1H203.444V326.779H227.225V321.119H251.762V315.081H275.543V302.628H291.775V185.267H308.762V176.965H316.689V170.927H324.616V158.097H336.318V146.021H345V103.756H332.543V86.3977H324.616V75.8314H316.689V69.4162H308.762V58.0953H299.325V54.3216H275.543V44.8875H251.762V39.227H227.225V29.4155H203.444V20.7362H177.02V12.4341H153.616V3ZM296.305 62.6237H304.232V73.9446H312.159V80.3598H320.086V90.926H328.013V108.285H340.47V141.493H331.788V153.569H320.086V166.399H312.159V172.437H304.232V180.739H288V129.04H296.305V62.6237ZM287.245 185.267H286.113V195.833H277.43V202.626H249.497V212.438H227.225V220.74H201.179V228.664H177.02V236.966H165.318V338.477H172.49V333.572H198.914V322.251H222.695V316.59H247.232V310.552H271.013V298.099H287.245V185.267ZM160.788 338.477H153.616V330.175H129.834V322.251H104.543V313.571H80.0066V305.269H55.0927V298.099H30.9338V290.929H7.52979V176.965H10.1722V187.909H26.404V195.833H50.5629V204.89H75.4768V212.438H100.013V220.74H125.305V228.664H149.086V236.966H160.788V338.477ZM244.967 202.626V207.909H222.695V216.211H196.649V224.136H172.49V232.438H153.616V224.136H129.834V216.211H104.543V207.909H80.0066V200.362H55.0927V191.305H39.2384V183.758H55.0927V175.078H80.3841V167.908H104.921V159.606H140.026V167.908H164.94V175.833H181.55V183.758H206.086V191.305H231V198.852H238.55V202.626H244.967ZM243.079 198.098V194.324H235.53V186.777H210.616V179.229H186.079V171.305H169.47V163.38H144.556V155.078H124.927V137.719H140.026V146.021H158.901V152.814H180.417V163.003H206.086V170.927H232.51V181.116H257.046V185.267H281.583V191.305H272.901V198.098H243.079ZM261.576 180.739H283.47V124.512H291.775V58.85H271.013V49.4159H247.232V43.7554H222.695V33.9439H198.914V25.2645H172.49V16.9625H149.086V7.52838H138.139V12.4341H144.556V16.9625H148.331V24.5098H157.013V32.8118H165.695V39.227H174.377V58.0953H183.06V94.3223H174.377V108.285H167.96V113.568H160.411V122.247H153.616V129.04H144.556V141.493H163.43V148.286H184.947V158.474H210.616V166.399H237.04V176.588H261.576V180.739ZM143.801 21.4909V29.0382H152.483V37.3402H161.166V43.7554H169.848V62.6237H178.53V89.7939H169.848V103.756H163.43V109.04H155.881V117.719H149.086V124.512H140.026V133.191H124.927V77.3409H134.742V16.9625H140.026V21.4909H143.801ZM120.397 137.719V155.078H100.391V163.38H75.8543V170.55H50.5629V179.229H34.7086V191.305H30.9338V183.38H14.702V170.927H39.2384V161.116H64.5298V152.814H87.1788V146.021H112.47V137.719H120.397Z" fill="black"/>
<path d="M167.519 218.038V232.662H153.286V224.195H143.922V218.038H145.42H167.519Z" fill="#FA8745"/>
<path d="M135.28 216.376V208.732H104.703V216.376H135.28Z" fill="#DB3A36"/>
<path d="M175.164 191.782L167.519 191.782L167.519 208.4L175.164 208.4L175.164 191.782Z" fill="#DB3A36"/>
<path d="M110.353 208.067V200.09H86.7549V208.067H110.353Z" fill="#FA8745"/>
<path d="M119.991 197.432V193.263V190.231H112.411V175.828H104.831V193.263H98.3878V197.432H119.991Z" fill="#FEC200" fill-opacity="0.996078"/>
<path d="M86.755 198.761V191.636H78.5291V184.137H71.7987V198.761H86.755Z" fill="#DB3A36"/>
<path d="M53.5189 184.469H67.8105V190.452H53.5189V184.469Z" fill="#FEC200"/>
<path d="M84.7609 184.137V177.32V176.183H92.3577V167.851H108.691V172.775H106.792H96.536V176.562V184.137H84.7609Z" fill="#3D85DC"/>
<path d="M167.583 214.978L164.185 214.978L159.789 214.978L159.987 207.431L151.685 207.213L152.111 190.987L157.017 191.116L156.967 193.003L156.7 203.191L160.473 203.29L167.583 203.439L167.583 209.479L167.583 214.978Z" fill="#3D85DC"/>
<path d="M174.769 224.352V214.517H184.218V215.652V217.165V224.352H174.769Z" fill="#3D85DC"/>
<path d="M184.218 183.876V191.82H168.722V183.876H184.218Z" fill="#FEC200"/>
<path d="M217.479 191.442V199.008H208.786H201.226V191.442H217.479Z" fill="#FA8745"/>
<path d="M151.714 169.502H164.564V175.554H151.714V169.502Z" fill="#3D85DC"/>
<path d="M127.902 175.932V182.742H119.209V175.932H127.902Z" fill="#FA8745"/>
<path d="M143.398 175.932V182.742H127.902V175.932H143.398Z" fill="#DB3A36"/>
<path d="M127.902 166.854V175.932H119.209H114.673V175.176V166.854H127.902Z" fill="#3D85DC"/>
<path fill-rule="evenodd" clip-rule="evenodd" d="M238.644 199.008H217.479H208.786V208.086H217.479H238.644V199.008Z" fill="#DB3A36"/>
<path d="M217.479 208.086V216.408H205.006V208.086H208.786H217.479Z" fill="#3D85DC"/>
<path fill-rule="evenodd" clip-rule="evenodd" d="M24.8856 188.79H8.65007V291.111H13.1809V193.321H20.3547V201.627H44.8967V210.689H69.4387V254.865H92.0929V218.807H94.7359V226.547H119.278V234.098H143.442V243.16H154.014V338.685H158.545V238.629H147.973V229.567H123.809V222.016H99.2667V214.276H73.9696V206.158H49.4276V197.096H24.8856V188.79ZM73.9696 218.807H87.5621V250.334H73.9696V218.807Z" fill="#FEC200"/>
<path fill-rule="evenodd" clip-rule="evenodd" d="M285.507 204.079H250.756V213.532H228.47V222.228H202.406V229.79H178.232V238.865H166.522V338.685H171.055V243.402H182.764V234.327H206.939V226.765H233.003V218.069H255.289V208.616H280.975V298.228H285.507V204.079Z" fill="#FEC200"/>
<path fill-rule="evenodd" clip-rule="evenodd" d="M298.232 131.293V62.4933H302.79V135.829H294.054V180.814H289.496V131.293H298.232Z" fill="#FEC200"/>
</g>
<path d="M132.5 4H152.5V15H175.5V23.5H202V33H225.5V43H249.5V48.5H273V58H294.5V127H285.5V183H284H259V178.5H235V168.5H208V160H183V151H161.5V144H142.5V135V126.5H151.5V119.5H158V111H165.5V105.5H173V92H180V60.5H172V40.5H163.5V34.5H154.5V26.5H146H144V20.5H141V14V10H132.5V4Z" fill="#B38D7A"/>
<path d="M123.5 74.5H132.5V10H141V14V20.5H144V26.5H146H154.5V34.5H163.5V40.5H172V60.5H180V92H173V105.5H165.5V111H158V119.5H151.5V126.5H142.5V135H123.5V134.5V74.5Z" fill="#B38D7A"/>
<path d="M284 183V194H274.5V200.5H247H240V196H233V188.5H208V181H183.5V172.5H167V166H142.5V158H123.5V135H142.5V144H161.5V151H183V160H208V168.5H235V178.5H259V183H284Z" fill="#886C5E"/>
<path d="M4 294.5V176.5H12.5V187H28V194H37H53V204H77.5V211H102.5V219H127.5V226.5H151.5V235.5H163V342H151.5V331.5H127V325H102V315.5H77.5V307.5H53V299H29V294.5H4Z" fill="#975A3A"/>
<path d="M296.5 58V60.5H306.5V73H315V78.5H323V90H330V106.5H343.5V143.5H333.5V156.5H322V169H314.5V175.5H306V183H291H285.5V127H294.5V58H296.5Z" fill="#975A3A"/>
<path d="M285.5 183H291V300H273.5V312.5H248.5V319.5H224.5V324.5H201V336H175.5V342H163V235.5H174.5V226H198.5V217.5H224V209.5H247V200.5H274.5V194H284V183H285.5Z" fill="#975A3A"/>
<path d="M240 200.5H247V209.5H224V217.5H198.5V226H174.5V235.5H163H151.5V226.5H127.5V219H102.5V211H77.5V204H53V194H37V182H53V173.5H77.5V165.5H102.5V158H123.5H142.5V166H167V172.5H183.5V181H208V188.5H233V196H240V200.5Z" fill="#FDFF9B"/>
<path d="M12.5 187V176.5V167.5H37V158.5H63V148.5H86V142H111V134.5H123.5V135V158H102.5V165.5H77.5V173.5H53V182H37V194H28V187H12.5Z" fill="#886C5E"/>
<path d="M12.5 176.5H4V294.5H29V299H53V307.5H77.5V315.5H102V325H127V331.5H151.5V342H163M12.5 176.5V187M12.5 176.5V167.5M12.5 187V167.5M12.5 187H28V194H37M12.5 167.5H37V158.5H63V148.5H86V142H111V134.5H123.5M123.5 134.5V135M123.5 134.5V74.5M123.5 158H142.5V166H167V172.5H183.5V181H208V188.5H233V196H240V200.5H247M123.5 158H102.5V165.5H77.5V173.5H53V182H37V194M123.5 158V135M123.5 74.5H132.5V10M123.5 74.5V135M330 90H323V78.5H315V73H306.5V60.5H296.5V58H294.5M330 90C330 95.5 330 106.5 330 106.5M330 90V106.5M330 106.5H343.5V143.5H333.5V156.5H322V169H314.5V175.5H306V183H291M285.5 183V127H294.5V58M285.5 183H291M285.5 183H284M294.5 58H273V48.5H249.5V43H225.5V33H202V23.5H175.5V15H152.5V4H132.5V10M291 183V300H273.5V312.5H248.5V319.5H224.5V324.5H201V336H175.5V342H163M284 183V194H274.5V200.5H247M284 183H259V178.5H235V168.5H208V160H183V151H161.5V144H142.5V135M247 200.5V209.5H224V217.5H198.5V226H174.5V235.5H163M37 194H53V204H77.5V211H102.5V219H127.5V226.5H151.5V235.5H163M163 235.5V342M142.5 135H123.5M142.5 135V126.5H151.5V119.5H158V111H165.5V105.5H173V92H180M180 92C180 81.5 180 60.5 180 60.5M180 92V60.5M180 60.5H172V40.5H163.5V34.5H154.5V26.5H146H144V20.5H141V14V10H132.5" stroke="black" stroke-width="8"/>
<path d="M282 294.5L281.52 209.5H256L255.98 219H233V225.5H207V235H183V244H171.5V332" stroke="#FEC200" stroke-width="8"/>
<path d="M154 327.5V244.5H145.5H142V235H119V228H94V220H90M90 220V254H69V220M90 220H69M69 220V212.5H44.5V202.5H19.5V196H13V290.5" stroke="#FEC200" stroke-width="8"/>
<path d="M294 179V135.5H303C303 116.833 303 77 303 77" stroke="#FEC200" stroke-width="8"/>
<path d="M172.433 219.711V210.816H181.351V211.842V213.211V219.711H172.433Z" fill="#3D85DC"/>
<path d="M172.634 181.395V188.579H158.009V181.395H172.634Z" fill="#FEC200"/>
<path d="M201.838 188.921V195.763H193.634H186.5V188.921H201.838Z" fill="#FA8745"/>
<path d="M143.919 172.158H156.047V177.632H143.919V172.158Z" fill="#3D85DC"/>
<path d="M122.985 172.711V178.868H114.78V172.711H122.985Z" fill="#FA8745"/>
<path d="M137.61 172.711V178.868H122.985V172.711H137.61Z" fill="#DB3A36"/>
<path d="M122.985 164.5V172.711H114.78H110.5V172.026V164.5H122.985Z" fill="#3D85DC"/>
<path fill-rule="evenodd" clip-rule="evenodd" d="M221.814 195.763H201.838H193.634V203.974H201.838H221.814V195.763Z" fill="#DB3A36"/>
<path d="M201.838 203.974V211.5H190.067V203.974H193.634H201.838Z" fill="#3D85DC"/>
<path d="M169 203.644V196H138.423V203.644H169Z" fill="#DB3A36"/>
<path d="M160 221.977V214H136.402V221.977H160Z" fill="#FA8745"/>
<path d="M129 205.603V201.434V198.402H121.42V184H113.84V201.434H107.397V205.603H129Z" fill="#FEC200" fill-opacity="0.996078"/>
<path d="M75 196.624V189.499H66.7741V182H60.0437V196.624H75Z" fill="#DB3A36"/>
<path d="M85.7085 190H100V195.983H85.7085V190Z" fill="#FEC200"/>
<path d="M79.07 187.286V180.468V179.332H86.6668V171H103V175.924H101.101H90.8451V179.711V187.286H79.07Z" fill="#3D85DC"/>
</svg>
