<svg width="143" height="86" viewBox="0 0 143 86" fill="none" xmlns="http://www.w3.org/2000/svg">
<path d="M99.7087 7.8291V21.4873V35.1455H106.538V49.3291H99.1834V56.6835H16.1834V49.3291H8.82903H1.99991V56.6835H8.82903V63.5126H16.1834V83.9999H44.0252V69.8164H71.3416V83.9999H99.7087V63.5126H120.196V56.6835H127.025V49.3291H140.683V21.4873H133.854V15.1835H127.025V7.8291H99.7087Z" fill="#BBE71C" stroke="#BBE71C" stroke-width="4"/>
<path d="M91.8289 22.0126H99.3481V24.1139V35.5833H106.182V48.8402H98.7717V56.3333H16.5951V49.0049H9.35432V35.6709H15.6581V22.0126H22.4872V14.6582H29.8417V8.35443H37.1961V1H78.1707V8.35443H84.9998V14.6582H91.8289V22.0126Z" fill="#0E7E10" stroke="#0E7E10" stroke-width="2"/>
<rect width="13.6582" height="13.6582" transform="matrix(-1 0 0 1 127.025 22.0127)" fill="black"/>
</svg>
