<svg width="143" height="86" viewBox="0 0 143 86" fill="none" xmlns="http://www.w3.org/2000/svg">
<path d="M42.9747 7.8291V21.4873V35.1455H36.1455V49.3291H43.5V56.6835H126.5V49.3291H133.854H140.683V56.6835H133.854V63.5126H126.5V83.9999H98.6582V69.8164H71.3417V83.9999H42.9747V63.5126H22.4873V56.6835H15.6582V49.3291H2V21.4873H8.82911V15.1835H15.6582V7.8291H42.9747Z" fill="#BBE71C" stroke="#BBE71C" stroke-width="4"/>
<path d="M50.8544 22.0126H43.3353V24.1139V35.5833H36.501V48.8402H43.9117V56.3333H126.088V49.0049H133.329V35.6709H127.025V22.0126H120.196V14.6582H112.842V8.35443H105.487V1H64.5126V8.35443H57.6835V14.6582H50.8544V22.0126Z" fill="#0E7E10" stroke="#0E7E10" stroke-width="2"/>
<rect x="15.6583" y="22.0127" width="13.6582" height="13.6582" fill="black"/>
</svg>
