<svg width="251" height="334" viewBox="0 0 251 334" fill="none" xmlns="http://www.w3.org/2000/svg">
<path d="M215.192 288.404H243V228.877H202.658V259.032H48.3417V228.877H8V288.404H35.025V326H215.192V288.404Z" fill="#002711"/>
<path d="M143.908 197.938H104.35V24.4483V8H8V228.877H48.3417V259.032H202.658V228.877H243V8H235.167H143.908V24.4483V197.938Z" fill="#61EAD9"/>
<path d="M104.35 197.938H143.908V24.4483H104.35V197.938Z" fill="black"/>
<path fill-rule="evenodd" clip-rule="evenodd" d="M0 0H113.028V16.3879H135.244V0H251V296.542H223.328V334H26.8929V296.542H0V0ZM135.244 33.5561H113.028V189.241H135.244V33.5561ZM95.8789 17.1682V206.409H152.393V17.1682H233.851V220.065H193.707V250.11H57.2935V220.065H17.1491V17.1682H95.8789ZM17.1491 237.234V279.374H44.0419V316.832H206.179V279.374H233.851V237.234H210.856V267.278H40.1444V237.234H17.1491Z" fill="black"/>
</svg>
