<svg width="140" height="140" viewBox="0 0 140 140" fill="none" xmlns="http://www.w3.org/2000/svg">
<path d="M114 42.5V31.5V26H116.75V4H92H89.25H50.75H23.25V23.25H32.875V26H45.25V21.875H61.75V38.375H76.875V19.125H92V31.5H98.875V42.5H114Z" fill="#294BA4"/>
<path d="M23.25 136H114V126.375H126.375V112.625H136V63.125H126.375V42.5H114H98.875V31.5H92V19.125H76.875V38.375H61.75V21.875H45.25V26H32.875V35.625V42.5H13.625V63.125H4V112.625H15V126.375H23.25V136Z" fill="#B8D2DF"/>
<path fill-rule="evenodd" clip-rule="evenodd" d="M19.2157 0H120.784V30.1961H118.039V38.4314H130.392V59.0196H140V116.667H130.392V130.392H118.039V140H19.2157V130.392H10.9804V116.667H0V59.0196H9.60784V38.4314H28.8235V27.451H19.2157V0ZM37.0588 30.1961V46.6667H17.8431V67.2549H8.23529V108.431H19.2157V122.157H27.451V131.765H109.804V122.157H122.157V108.431H131.765V67.2549H122.157V46.6667H94.7059V35.6863H87.8431V23.3333H80.9804V42.549H57.6471V26.0784H49.4118V30.1961H37.0588ZM41.1765 21.9608H37.0588V19.2157H27.451V8.23529H46.6667V13.7255H54.902V8.23529H85.098V15.098H72.7451V34.3137H65.8823V17.8431H41.1765V21.9608ZM93.3333 8.23529V15.098H96.0784V27.451H102.941V38.4314H109.804V35.6863H105.686V27.451H109.804V21.9608H112.549V8.23529H93.3333Z" fill="#0E175A"/>
<path fill-rule="evenodd" clip-rule="evenodd" d="M132 67V108.49H122.356V122.319H109.956V132H27.2889V122.319H19.0222V108.49H12.1333L8 108.489V69.7659H16.2667V100.192H27.2889V114.021H35.5555V123.702H45.1999V93.2764H53.4666V123.702H83.7776V93.2764H92.0443V123.702H101.689V114.021H114.089V91.8939H123.733V67H132Z" fill="#768CB3"/>
<path fill-rule="evenodd" clip-rule="evenodd" d="M76 90V42H83V90H76Z" fill="#768CB3"/>
<path fill-rule="evenodd" clip-rule="evenodd" d="M57 90V42H65V90H57Z" fill="#768CB3"/>
<path fill-rule="evenodd" clip-rule="evenodd" d="M95 48H103V59H111V92H103V67.25H95V48Z" fill="#768CB3"/>
<path fill-rule="evenodd" clip-rule="evenodd" d="M43 48H35V59H27V92H35V67.25H43V48Z" fill="#768CB3"/>
</svg>
