<svg width="103" height="103" viewBox="0 0 103 103" fill="none" xmlns="http://www.w3.org/2000/svg">
<path d="M83.8333 31.2917V23.2083V19.1667H85.8542V3H67.6667H65.6458H37.3542H17.1458V17.1458H24.2188V19.1667H33.3125V16.1354H45.4375V28.2604H56.5521V14.1146H67.6667V23.2083H72.7188V31.2917H83.8333Z" fill="#A48B29"/>
<path d="M17.1458 100H83.8333V92.9271H92.9271V82.8229H100V46.4479H92.9271V31.2917H83.8333H72.7188V23.2083H67.6667V14.1146H56.5521V28.2604H45.4375V16.1354H33.3125V19.1667H24.2188V26.2396V31.2917H10.0729V46.4479H3V82.8229H11.0833V92.9271H17.1458V100Z" fill="#DFDAB8"/>
<path fill-rule="evenodd" clip-rule="evenodd" d="M14.1373 0H88.8627V22.2157H86.8431V28.2745H95.9314V43.4216H103V85.8333H95.9314V95.9314H86.8431V103H14.1373V95.9314H8.07843V85.8333H0V43.4216H7.06863V28.2745H21.2059V20.1961H14.1373V0ZM27.2647 22.2157V34.3333H13.1275V49.4804H6.05882V79.7745H14.1373V89.8725H20.1961V96.9412H80.7843V89.8725H89.8725V79.7745H96.9412V49.4804H89.8725V34.3333H69.6765V26.2549H64.6274V17.1667H59.5784V31.3039H42.4118V19.1863H36.3529V22.2157H27.2647ZM30.2941 16.1569H27.2647V14.1373H20.1961V6.05882H34.3333V10.098H40.3922V6.05882H62.6078V11.1078H53.5196V25.2451H48.4706V13.1275H30.2941V16.1569ZM68.6667 6.05882V11.1078H70.6863V20.1961H75.7353V28.2745H80.7843V26.2549H77.7549V20.1961H80.7843V16.1569H82.8039V6.05882H68.6667Z" fill="#C9D30E"/>
<path fill-rule="evenodd" clip-rule="evenodd" d="M97 49V79.6384H89.9222V89.8511H80.8222V97H20.1555V89.8507H14.0889V79.6384H9.03333L6 79.6381V51.0425H12.0667V73.5108H20.1555V83.7231H26.2222V90.8724H33.3V68.4041H39.3666V90.8724H61.611V68.4041H67.6777V90.8724H74.7556V83.7235H83.8556V67.3832H90.9333V49H97Z" fill="#B3B076"/>
<path fill-rule="evenodd" clip-rule="evenodd" d="M56 66V31H61V66H56Z" fill="#B3B076"/>
<path fill-rule="evenodd" clip-rule="evenodd" d="M42 66V31H48V66H42Z" fill="#B3B076"/>
<path fill-rule="evenodd" clip-rule="evenodd" d="M70 35H76V43.25H82V68H76V49.4375H70V35Z" fill="#B3B076"/>
<path fill-rule="evenodd" clip-rule="evenodd" d="M32 35H26V43.25H20V68H26V49.4375H32V35Z" fill="#B3B076"/>
</svg>
