<svg width="198" height="198" viewBox="0 0 198 198" fill="none" xmlns="http://www.w3.org/2000/svg">
<path d="M164.408 60.8107L188.468 150.603L157.556 158.886L154.401 147.11L145.569 149.477L143.991 143.589L132.215 146.744L129.454 136.44L120.622 138.806L123.383 149.111L71.8624 162.915L69.1014 152.611L58.7973 155.372L56.0364 145.068L47.2043 147.435L44.0489 135.659L33.7449 138.42L23.0954 98.6754L33.3995 95.9144L27.4831 73.8342L36.3152 71.4677L33.5542 61.1636L43.8583 58.4027L41.4917 49.5706L63.5719 43.6543L60.8109 33.3502L99.0832 23.0952L101.844 33.3992L122.452 27.8773L124.819 36.7094L136.595 33.554L140.145 46.8021L148.977 44.4355L154.104 63.5716L164.408 60.8107Z" fill="#35C93F"/>
<path fill-rule="evenodd" clip-rule="evenodd" d="M51.4987 27.9922L104.469 13.7989L107.229 24.0987L127.828 18.579L130.194 27.4074L141.965 24.2533L145.513 37.4959L154.342 35.1303L159.467 54.2584L169.767 51.4986L197.759 155.967L152.146 168.189L148.992 156.418L140.163 158.784L138.586 152.898L66.4881 172.217L63.7283 161.917L53.4286 164.677L50.6688 154.377L41.8404 156.743L38.6863 144.972L28.3866 147.731L13.799 93.29L24.0988 90.5302L18.1849 68.4593L27.0133 66.0937L24.2535 55.794L34.5532 53.0342L32.1877 44.2058L54.2585 38.292L51.4987 27.9922ZM70.1552 38.7636L72.915 49.0633L50.8442 54.9772L53.2097 63.8055L42.91 66.5653L45.6698 76.8651L36.8414 79.2306L42.7553 101.302L32.4555 104.061L39.1579 129.075L49.4577 126.315L52.6117 138.086L61.4401 135.721L64.1999 146.021L74.4997 143.261L77.2595 153.56L114.044 143.704L111.284 133.404L134.827 127.096L137.587 137.396L149.358 134.242L150.935 140.127L159.763 137.762L162.917 149.533L179.102 145.196L158.995 70.1551L148.696 72.9149L143.57 53.7868L134.742 56.1524L131.193 42.9098L119.422 46.0639L117.057 37.2355L96.4573 42.7552L93.6975 32.4554L70.1552 38.7636Z" fill="#1E6C5B"/>
<path fill-rule="evenodd" clip-rule="evenodd" d="M69.8604 73.5587L111.16 62.4926L115.839 79.9556L126.164 77.1891L137.472 119.391L125.672 122.553L117.484 91.9929L110.109 93.969L117.127 120.164L71.403 132.415L59.3151 87.3025L72.5899 83.7455L69.8604 73.5587ZM84.7797 82.039L87.5092 92.2258L74.2344 95.7828L80.0834 117.612L102.208 111.683L100.648 105.862L94.7485 107.443L91.629 95.8011L106.379 91.8489L102.479 77.2964L84.7797 82.039Z" fill="#29B242"/>
</svg>
