<svg width="157" height="96" viewBox="0 0 157 96" fill="none" xmlns="http://www.w3.org/2000/svg">
<path d="M37.7919 70.2254H43.7145V59.894H48.9321V49.9117H54.0791V44.9554H71.2829V38.9521H65.5718V33.926H49.7782V28.2717H43.7145V16.4743H38.638H37.7919H33.773V32.111H27.7094V37.7654H11.0696V43.9083V48.2363H31.2347V54.7283H37.7919V59.0563V70.2254Z" fill="#F3C623"/>
<path fill-rule="evenodd" clip-rule="evenodd" d="M37.4174 20.083H40.0701V31.8804H46.1337V37.5347H61.9273V41.3467H50.4347V46.303H45.2876V56.2853H41.4364V51.1197H34.8792V44.6276H14.7141V41.374H31.3538V35.7197H37.4174V20.083ZM30.1286 28.5023H24.0649V34.1567H7.4252V40.2996H0V47.517H7.4252V51.845H27.5903V58.337H34.1475V73.8341H40.0701V83H47.359V63.5027H52.5765V53.5204H57.7236V48.5641H74.9273V42.5608H82V35.3434H69.2162V30.3173H53.4226V24.663H47.359V12.8657H42.2825V0H34.9936V12.8657H30.1286V28.5023Z" fill="#F3C623"/>
<path d="M121.957 85.8419H126.652V77.6266H130.788V69.6888H134.868V65.7477H148.505V60.9739H143.978V56.9773H131.458V52.4811H126.652V43.1001H122.628H121.957H118.771V55.5341H113.965V60.0303H100.775V64.9151V68.3566H116.759V73.5189H121.957V76.9605V85.8419Z" fill="#F3C623"/>
<path fill-rule="evenodd" clip-rule="evenodd" d="M121.66 45.9697H123.763V55.3506H128.569V59.8469H141.089V62.8781H131.979V66.8193H127.899V74.757H124.846V70.6494H119.648V65.487H103.664V62.8998H116.854V58.4036H121.66V45.9697ZM115.882 52.6645H111.076V57.1607H97.8858V62.0455H92V67.7846H97.8858V71.2262H113.87V76.3885H119.068V88.7115H123.763V96H129.541V80.4961H133.677V72.5584H137.756V68.6173H151.394V63.8435H157V58.1044H146.867V54.1077H134.347V49.6115H129.541V40.2305H125.517V30H119.739V40.2305H115.882V52.6645Z" fill="#F3C623"/>
</svg>
