<svg width="157" height="96" viewBox="0 0 157 96" fill="none" xmlns="http://www.w3.org/2000/svg">
<path d="M119.208 70.2254H113.285V59.894H108.068V49.9117H102.921V44.9554H85.7171V38.9521H91.4282V33.926H107.222V28.2717H113.285V16.4743H118.362H119.208H123.227V32.111H129.291V37.7654H145.93V43.9083V48.2363H125.765V54.7283H119.208V59.0563V70.2254Z" fill="#F3C623"/>
<path fill-rule="evenodd" clip-rule="evenodd" d="M119.583 20.083H116.93V31.8804H110.866V37.5347H95.0727V41.3467H106.565V46.303H111.712V56.2853H115.564V51.1197H122.121V44.6276H142.286V41.374H125.646V35.7197H119.583V20.083ZM126.871 28.5023H132.935V34.1567H149.575V40.2996H157V47.517H149.575V51.845H129.41V58.337H122.853V73.8341H116.93V83H109.641V63.5027H104.423V53.5204H99.2764V48.5641H82.0727V42.5608H75V35.3434H87.7838V30.3173H103.577V24.663H109.641V12.8657H114.718V0H122.006V12.8657H126.871V28.5023Z" fill="#F3C623"/>
<path d="M35.043 85.8419H30.3482V77.6266H26.2124V69.6888H22.1324V65.7477H8.49527V60.9739H13.0224V56.9773H25.5417V52.4811H30.3482V43.1001H34.3723H35.043H38.2287V55.5341H43.0353V60.0303H56.2253V64.9151V68.3566H40.2408V73.5189H35.043V76.9605V85.8419Z" fill="#F3C623"/>
<path fill-rule="evenodd" clip-rule="evenodd" d="M35.3398 45.9697H33.2371V55.3506H28.4306V59.8469H15.9112V62.8781H25.0213V66.8193H29.1013V74.757H32.1541V70.6494H37.3519V65.487H53.3364V62.8998H40.1464V58.4036H35.3398V45.9697ZM41.1176 52.6645H45.9241V57.1607H59.1142V62.0455H65V67.7846H59.1142V71.2262H43.1296V76.3885H37.9319V88.7115H33.2371V96H27.4593V80.4961H23.3235V72.5584H19.2435V68.6173H5.60639V63.8435H-1.2539e-06V58.1044H10.1335V54.1077H22.6528V49.6115H27.4593V40.2305H31.4834V30H37.2612V40.2305H41.1176V52.6645Z" fill="#F3C623"/>
</svg>
